<?xml version="1.0" encoding="UTF-8" standalone="no"?>
<!DOCTYPE svg PUBLIC "-//W3C//DTD SVG 1.1//EN" "http://www.w3.org/Graphics/SVG/1.1/DTD/svg11.dtd">
<svg width="100%" height="100%" viewBox="0 0 491 491" version="1.1" xmlns="http://www.w3.org/2000/svg" xmlns:xlink="http://www.w3.org/1999/xlink" xml:space="preserve" xmlns:serif="http://www.serif.com/" style="fill-rule:evenodd;clip-rule:evenodd;stroke-linejoin:round;stroke-miterlimit:2;">
    <g id="Background" transform="matrix(1,0,0,1,33,3)">
        <path d="M269.74,73.72C272.621,70.087 272.683,70.218 275.717,66.689C306.318,31.086 306.76,31.507 309.156,28.206C323.597,8.308 330.981,10.888 349.523,12.323C355.792,12.808 363.176,18.235 365.194,20.764C390.7,52.737 391.408,52.036 417.15,83.826C417.462,84.158 417.774,84.49 418.087,84.822C419.275,86.125 418.904,86.427 432.278,101.699C433.972,103.632 443.197,114.166 437.276,133.439C436.544,135.821 435.3,139.869 417.081,157.166C416.363,157.798 414.625,159.327 408.628,165.637C392.025,183.109 391.873,182.856 374.891,199.896C337.685,237.231 338.16,238.241 330.544,240.659C328.056,241.313 328.126,241.185 325.5,241.479L324.499,241.538C323.508,241.477 322.516,241.415 321.524,241.353C318.837,241.018 318.654,241.305 311.523,248.523C293.793,266.471 276.366,283.792 276.101,284.084C254.145,308.267 258.029,313.74 242.533,317.629C232.753,320.083 225.966,324.569 224.386,325.014C217.59,326.93 206.701,315.735 209.06,304.425C209.277,303.466 209.493,302.507 209.71,301.547C210.291,292.894 205.248,303.509 187.5,305.482C183.904,305.254 182.336,304.541 181.551,304.367C179.295,303.381 179.297,303.525 178.312,302.776C164.728,292.442 170.392,285.884 174.591,270.524C175.169,268.522 175.274,268.661 175.737,266.555C176.93,261.121 169.836,265.28 167.379,266.173L166.493,266.476C161.441,267.684 161.373,268.42 156.412,266.728L154.784,266.008C152.989,265.169 152.988,265.197 152.846,265.101C152.502,264.872 152.832,264.673 152.527,264.469C149.883,261.568 149.944,261.597 149.711,261.355C142.371,252.312 149.007,251.352 154.41,232.478C154.95,231.04 154.991,231.131 154.9,229.662C157.833,221.232 160.202,218.594 160.913,217.803C161.94,216.83 161.884,216.885 162.849,215.869C169.784,207.595 210.391,162.192 214.548,157.544L214.981,156.98C217.723,154.04 217.669,154.079 217.907,153.831C218.877,152.833 218.827,152.887 219.806,151.829C220.736,150.747 220.66,150.832 220.736,150.747C224.011,147.073 223.946,147.116 227.14,143.407C227.075,141.873 226.978,141.939 226.441,140.519C224.02,130.909 221.732,128.958 237.814,110.749C253.394,93.11 267.719,75.806 268.8,74.749C269.114,74.406 269.427,74.063 269.74,73.72Z" style="fill:rgb(3,45,116);fill-opacity:0.99;"/>
        <path d="M171.335,71.503C171.323,69.571 171.237,55.117 173.273,47.436C173.535,46.448 173.881,45.139 185.516,43.785C203.696,41.668 215.869,43.244 218.485,43.583C221.532,43.977 221.808,49.932 221.916,50.414C222.257,51.943 225.384,65.942 226.762,69.393C228.096,72.734 255.083,74.273 255.062,76.547C255.051,77.837 237.172,97.5 236.936,97.829C232.944,103.416 231.768,101.518 228.505,101.738C223.962,102.044 224.016,101.623 219.508,101.786C132.641,104.92 105.988,148.944 95.078,158.133C94.461,158.838 93.844,159.543 93.227,160.249C76.475,182.11 74.571,190.457 71.509,195.504L71.078,196.296C60.242,220.875 56.52,240.42 56.547,265.5C56.586,301.21 67.905,324.165 68.218,324.695C68.45,325.58 68.681,326.465 68.912,327.35C70.082,330.084 77.697,347.868 87.364,359.613C97.558,371.998 105.969,383.651 131.32,398.896C168.613,421.324 206.884,420.659 212.51,420.871C213.838,420.816 215.165,420.762 216.493,420.707C267.433,419.456 301.987,393.056 314.173,381.158C369.203,327.43 363.184,271.933 361.36,243.514C361.202,242.48 361.044,241.446 360.887,240.412C360.321,237.469 358.2,228.833 359.358,226.413C359.787,225.516 381.501,204.03 382.392,203.223C384.275,204.438 384.286,204.389 384.429,204.519C384.802,207.193 384.769,207.183 384.832,207.407C385.213,208.762 388.993,222.209 389.89,224.253C390.559,225.777 407.738,226.743 410.495,226.748C414.508,226.756 415.272,229.134 416.595,238.487C417.591,244.283 420.808,255.681 419.693,283.511C419.548,287.132 418.103,286.198 414.57,286.888C392.969,291.104 392.559,291.541 392.201,293.37C389.013,309.654 389.818,309.762 384.814,325.584C384.275,327.289 383.958,328.293 401.593,340.353C404.94,342.641 404.408,343.667 400.233,352.372C398.796,355.368 386.015,382.016 379.216,388.192C376.443,390.71 363.782,383.52 353.447,380.716C351.079,380.074 349.569,383.537 347.643,385.629C344.771,388.748 344.814,388.64 341.863,391.823C334.585,399.67 334.359,399.29 326.663,406.658C322.872,410.288 334.801,429.934 333.652,433.556C332.97,435.705 306.398,450.941 303.386,452.259C285.811,459.951 284.126,461.933 279.821,457.083C278.433,455.44 278.416,455.594 276.863,454.194C274.381,452.327 270.56,448.029 268.222,445.827C262.243,440.194 262.255,437.739 254.412,440.21C230.842,447.635 221.011,445.089 214.565,446.81C212.22,447.436 208.01,462.562 205.115,467.234C202.404,471.61 168.379,464.634 167.522,464.412C165.529,463.895 148.749,459.544 142.594,458.036C138.262,456.975 138.623,456.007 138.487,451.501C136.865,441.993 137.028,433.544 137.025,433.514C136.45,425.66 131.454,426.333 129.611,425.283C120.99,420.369 121.009,420.358 120.257,419.938L118.778,419.071C111.789,414.91 109.033,412.494 108.265,411.82C102.673,406.917 99.283,412.443 94.154,416.165C82.915,424.319 80.94,424.27 79.609,424.237C79.132,423.829 60.06,408.083 46.923,391.048C46.503,390.497 46.083,389.945 45.662,389.394C43.641,386.856 43.79,386.864 41.922,384.24C40.915,382.825 40.579,381.87 54.682,366.67C59.914,361.03 47.823,352.058 41.647,330.438C40.087,327.619 39.702,327.616 36.53,328.139C35.006,328.163 27.566,328.277 17.499,329.161C12.198,329.627 12.833,325.291 7.55,308.487C0.884,277.83 2.154,269.549 3.56,269.721C4.584,269.846 4.532,269.718 23.413,266.041C28.189,265.111 29.888,266.267 30.433,261.503C30.376,258.533 30.092,243.513 33.559,224.511C34.198,221.008 34.964,219.94 28.605,216.294C26.521,214.83 26.631,214.788 24.428,213.603C16.619,208.374 11.101,206.058 9.867,203.393L10.131,202.461C14.217,185.165 15.745,181.104 22.765,166.618C24.806,162.587 24.856,162.702 26.76,158.638C28.714,155.002 28.512,154.988 28.694,154.687C31.127,150.662 50.076,157.863 58.505,157.654C59.049,157.64 59.831,158.389 67.087,148.186C78.316,132.394 79.41,133.311 82.228,129.309C82.842,128.436 83.186,127.948 78.523,116.492C78.011,115.235 73.292,103.64 72.825,100.503C72.399,97.641 92.822,82.166 94.702,80.741C95.07,80.482 95.437,80.222 95.804,79.963C97.333,78.721 113.345,66.995 116.468,66.796C117.917,66.704 135.263,89.681 138.393,88.241C140.671,87.193 159.271,78.64 167.546,76.715C171.215,75.862 171.139,75.203 171.335,71.503Z" style="fill:rgb(0,108,231);fill-opacity:0.99;"/>
        <path d="M356.497,52.515C376.725,59.969 383.926,62.321 394.875,83.302C406.986,106.513 402.967,110.5 398.444,115.447C392.556,121.888 312.6,204.271 312.426,204.413C306.781,209.021 291.587,201.469 288.703,199.234C269.005,183.97 267.682,172.88 265.266,166.57C265.514,166.06 264.801,166.119 265.051,165.607C265.444,164.799 265.95,165.358 266.273,164.5C266.508,163.876 266.163,163.165 266.22,162.5C267.01,153.209 268.281,153.545 274.472,146.476C321.745,92.495 322.008,92.847 326.001,88.063C341.589,69.39 354.222,58.059 356.497,52.515Z" style="fill:rgb(253,125,11);fill-opacity:0.99;"/>
        <path d="M122.615,271.98L123.546,271.811C130.19,270.712 130.164,271.399 133.473,271.662L134.432,271.815C165.258,276.705 155.951,288.206 157.757,294.419C160.172,302.73 165.262,307.816 166.204,308.757C172.433,314.98 172.674,314.591 180.274,318.957C180.633,319.208 180.992,319.46 181.352,319.711C186.128,322.793 185.82,316.493 191.502,317.175C205.45,318.849 213.041,348.97 210.452,356.485C205.781,370.041 200.486,370.031 187.483,370.147C185.452,369.727 183.421,369.307 181.39,368.888L179.498,368.506C172.13,366.246 168.151,363.62 162.164,370.268C160.723,371.868 161.792,372.025 162.144,372.75L162.553,373.455C166.885,379.032 164.819,382.057 158.719,384.949C158.422,385.089 158.423,385.019 154.729,385.905C152.606,386.071 152.678,386.294 150.5,386.236C145.915,386.115 144.454,387.336 140.466,387.091C137.42,386.903 137.493,386.864 134.5,386.577L133.367,387.687C125.914,381.623 111.058,369.942 101.536,360.453C100.263,359.184 100.007,359.498 99.096,357.893C103.154,352.901 102.86,352.798 106.35,347.293C109.198,343.754 100.019,330.597 115.649,326.991C125.6,324.695 119.707,320.461 113.902,307.316C113.056,305.421 113.191,305.438 112.331,303.561C103.492,278.766 111.653,275.252 122.615,271.98Z" style="fill:rgb(1,46,115);fill-opacity:0.98;"/>
        <path d="M358.747,28.29C365.963,36.024 371.141,42.685 376.916,50.173C391.706,69.353 392.869,68.253 407.929,87.151C419.604,101.801 429.532,108.824 429.671,118.493C429.895,134.046 424.276,136.474 415.958,144.952C340.715,221.646 341.158,221.953 334.418,228.41C325.11,237.327 315.271,229.164 314.171,223.575C311.919,212.138 314.761,211.454 329.113,197.066C329.461,197.693 330.371,197.872 330.718,198.5C331.172,199.32 326.486,203.144 317.472,212.468C315.843,214.154 314.879,220.952 318.377,225.739C324.663,234.339 334.38,220.842 335.053,220.08C336.754,218.152 388.352,165.655 397.355,156.355C421.316,131.603 430.958,125.41 423.99,114.41C421.897,112.603 422.126,112.354 417.269,109.977C406.869,104.886 411.601,100.229 398.894,81.242C390.92,69.328 390.56,69.642 379.742,60.242C369.926,51.714 369.617,52.206 358.78,45.09C353.202,41.427 355.348,33.654 352.562,31.724L351.948,31.709C351.49,31.615 351.264,30.987 350.806,30.894C350.396,30.81 346.887,36.521 346.552,37.519C345.427,40.872 343.586,46.359 319.396,72.402C299.861,93.432 300.925,94.309 281.203,115.229C258.835,138.955 260.399,141.113 252.362,144.119C249.735,145.102 242.876,141.896 241.438,139.544C237.071,132.401 242.076,130.744 261.059,108.125C264.529,103.991 294.804,67.918 304.824,56.774C327.968,31.033 326.902,30.012 329.445,28.412C340.952,21.172 350.411,32.422 358.747,28.29Z" style="fill:rgb(252,123,8);fill-opacity:0.99;"/>
        <path d="M220.498,110.981C222.623,111.425 223.712,111.677 222.352,113.398C221.546,114.479 215.317,122.823 210.409,125.295C206.368,127.331 144.609,126.27 100.738,192.664C98.35,196.501 84.25,219.16 80.94,245.571C75.695,287.414 84.988,309.9 91.686,325.387C92.235,326.676 94.926,332.999 100.255,340.665C104.264,346.431 103.977,347.159 106.35,347.293C102.86,352.798 103.154,352.901 99.096,357.893C97.166,355.786 97.306,355.766 95.524,353.481C94.943,352.753 94.361,352.025 93.78,351.297C79.798,336.18 66.635,299.157 66.451,279.503L66.266,277.512C66.08,270.771 63.819,259.086 69.431,230.495L69.996,228.615C80.096,190.793 94.106,169.701 122.727,144.709C123.103,144.464 123.479,144.219 123.855,143.975C154.991,117.421 191.121,113.713 197.476,113.061C208.929,111.371 208.89,111.58 220.498,110.981Z" style="fill:rgb(0,107,230);fill-opacity:0.99;"/>
        <path d="M154.729,385.905C154.849,387.278 155.314,387.16 162.435,389.71C172.877,393.449 172.941,393.025 183.579,396.188C183.804,396.254 199.444,399.026 211.502,398.512C213.564,398.419 213.453,398.421 215.509,398.438C252.201,398.552 298.514,377.561 323.04,333.245C350.597,283.451 337.189,251.444 340.678,247.642C341.849,246.367 346.554,242.321 348.418,238.414C350.237,234.601 351.374,243.041 351.437,243.51C361.301,316.756 322.054,385.25 250.618,405.905C229.053,412.141 228.59,409.432 216.499,411.494C215.498,411.505 214.497,411.516 213.495,411.527C202.921,411.154 183.659,410.892 161.572,402.293C160.115,401.559 160.225,401.582 158.706,401.066C149.383,397.829 134.283,388.236 133.367,387.687L134.5,386.577C137.493,386.864 137.42,386.903 140.466,387.091C144.454,387.336 145.915,386.115 150.5,386.236C152.678,386.294 152.606,386.071 154.729,385.905Z" style="fill:rgb(0,106,229);fill-opacity:0.98;"/>
        <path d="M257.663,178.364C285.163,208.902 285.524,208.557 287.843,211.275C307.078,231.46 307.48,231.036 309.095,232.841C311.02,234.99 308.97,235.347 283.455,261.455C279.407,265.598 278.603,263.277 276.064,260.877C260.615,246.069 260.931,245.8 225.15,209.901C238.588,197.601 251.427,182.845 257.663,178.364Z" style="fill:rgb(233,104,8);fill-opacity:0.99;"/>
        <path d="M423.99,114.41C430.958,125.41 421.316,131.603 397.355,156.355C388.352,165.655 336.754,218.152 335.053,220.08C334.38,220.842 324.663,234.339 318.377,225.739C314.879,220.952 315.843,214.154 317.472,212.468C326.486,203.144 331.172,199.32 330.718,198.5C330.371,197.872 329.461,197.693 329.113,197.066C333.383,192.62 340.692,185.01 382.809,141.808C410.073,113.841 410.211,112.851 413.511,113.403C420.528,114.576 420.848,116.953 423.99,114.41Z" style="fill:rgb(194,64,0);fill-opacity:0.99;"/>
        <path d="M358.747,28.29C350.411,32.422 340.952,21.172 329.445,28.412C326.902,30.012 327.968,31.033 304.824,56.774C294.804,67.918 264.529,103.991 261.059,108.125C242.076,130.744 237.071,132.401 241.438,139.544C242.876,141.896 249.735,145.102 252.362,144.119C260.399,141.113 258.835,138.955 281.203,115.229C300.925,94.309 299.861,93.432 319.396,72.402C343.586,46.359 345.427,40.872 346.552,37.519C346.887,36.521 350.396,30.81 350.806,30.894C351.264,30.987 351.49,31.615 351.948,31.709L351.775,32.562C350.894,44.819 349.383,44.782 323.623,73.611C265.406,138.763 265.659,138.926 260.414,144.416C250.363,154.935 225.865,138.499 237.928,125.916C242.44,121.21 244.843,118.704 291.367,64.384C327.332,22.391 327.757,20.721 336.503,20.652C351.611,20.532 357.473,26.905 358.747,28.29Z" style="fill:rgb(251,194,69);fill-opacity:0.99;"/>
        <path d="M354.075,142.475C350.434,167.333 314.826,159.816 323.356,138.441C327.958,126.91 333.941,131.628 339.975,120.764C354.792,94.085 378.893,115.941 363.509,132.508C363.188,132.854 360.811,135.532 358.41,136.189C354.185,137.344 354.239,138.078 354.075,142.475Z" style="fill:rgb(4,42,117);fill-opacity:0.99;"/>
        <path d="M241.943,161.072C246.702,166.328 256.404,176.981 257.663,178.364C251.427,182.845 238.588,197.601 225.15,209.901C218.092,202.879 218.146,202.908 211.134,195.841C220.553,183.712 221.816,184.915 241.943,161.072Z" style="fill:rgb(253,191,73);fill-opacity:1;"/>
        <path d="M225.727,222.324C229.876,226.167 229.784,226.143 233.71,230.309C249.294,245.859 254.11,248.449 251.312,251.313C249.511,253.157 229.45,273.697 227.573,273.108C226.233,272.687 221.754,267.605 222.317,264.467C224.264,253.608 240.146,235.344 224.45,239.334C221.535,240.075 201.664,249.057 199.701,249.944C199.937,249.444 199.264,248.798 199.5,248.299C199.663,247.953 200.489,248.897 203.203,245.276C210.654,235.332 213.069,235.023 225.727,222.324Z" style="fill:rgb(215,80,2);fill-opacity:1;"/>
        <path d="M130.518,288.913C141.422,287.28 143.069,290.259 146.452,290.655C147.421,290.768 147.235,291.038 148.177,291.5C146.328,293.752 150.256,302.12 149.671,302.747C147.907,304.637 139.584,299.32 133.617,300.925C130.855,301.667 133.187,303.361 133.5,303.878C136.441,303.119 136.752,302.485 137.156,303.438C138.769,307.246 136.926,309.754 149.661,314.158C149.149,315.037 148.651,314.454 148.15,315.314C148.064,315.461 148.154,315.472 148.212,317.439C149.465,325.203 164.494,318.78 162.738,324.464C161.162,329.568 166.147,339.833 166.743,341.062C166.195,341.541 165.647,342.021 165.099,342.5L164.5,343.895L165.5,344.007C165.865,344.402 165.877,344.272 170.52,348.469C170.053,348.495 169.988,349.429 169.52,349.456C165.077,349.704 156.257,339.726 155.312,338.656C145.76,327.85 138.056,325.699 127.407,301.536C127.535,301.001 128.563,301.035 128.692,300.5C128.849,299.847 128.217,299.232 128.119,298.568C128.059,298.164 127.651,295.396 127.982,293.467C128.466,290.65 128,290.702 128.125,290.5C128.401,290.054 129.224,290.181 129.5,289.735L130.518,288.913Z" style="fill:rgb(156,180,209);fill-opacity:0.99;"/>
        <path d="M122.666,282.877C127.662,281.66 129.178,281.085 138.568,283.177C147.026,285.062 148.392,284.85 150.09,292.578C149.453,292.219 148.815,291.859 148.177,291.5C147.235,291.038 147.421,290.768 146.452,290.655C143.069,290.259 141.422,287.28 130.518,288.913C125.908,288.808 123.486,286.913 123.752,291.492C124.071,296.988 124.927,296.708 127.407,301.536C138.056,325.699 145.76,327.85 155.312,338.656C156.257,339.726 165.077,349.704 169.52,349.456C169.988,349.429 170.053,348.495 170.52,348.469C176.118,350.276 178.973,351.334 179.936,354.242C180.325,355.419 188.095,356.568 190.509,356.413C191.234,356.366 191.952,356.022 192.67,356.13C193.035,356.185 193.147,356.969 193.5,356.862C193.678,356.807 193.434,356.523 195.295,355.379C196.74,354.492 196.769,352.636 196.845,352.514C197.103,352.101 197.838,351.984 197.897,351.5C197.936,351.182 197.212,351.369 197.11,347.578C196.994,343.325 194.404,337.034 194.5,334.227L195.612,333.445C196.265,334.777 200.511,343.434 199.737,351.524C197.37,376.25 126.875,337.165 117.967,292.477C118.377,286.72 117.89,286.075 122.666,282.877Z" style="fill:rgb(205,221,236);fill-opacity:0.99;"/>
        <path d="M356.497,52.515C354.222,58.059 341.589,69.39 326.001,88.063C322.008,92.847 321.745,92.495 274.472,146.476C268.281,153.545 267.01,153.209 266.22,162.5C266.163,163.165 266.508,163.876 266.273,164.5C265.95,165.358 265.444,164.799 265.051,165.607C264.801,166.119 265.514,166.06 265.266,166.57C264.205,162.361 262.594,157.903 263.112,152.431C263.424,149.146 310.523,98.212 323.327,83.35C350.171,52.192 352.879,52.33 356.497,52.515Z" style="fill:rgb(251,193,64);fill-opacity:0.99;"/>
        <path d="M241.943,161.072C221.816,184.915 220.553,183.712 211.134,195.841C203.479,187.938 203.206,188.193 202.689,187.389C201.759,185.943 202.919,185.893 217.387,170.397C231.639,155.131 231.275,154.842 232.524,153.528C234.093,151.876 237.22,156.1 241.943,161.072Z" style="fill:rgb(253,125,7);fill-opacity:1;"/>
        <path d="M320.408,130.413C311.624,139.434 311.291,139.38 310.626,139.121C310.021,138.886 302.627,136.008 304.672,133.617C311.8,125.284 332.957,106.946 331.501,103.5C331.294,103.01 322.165,94.861 327.49,94.383C329.384,94.213 332.866,97.498 337.493,97.284C338.343,97.245 350.815,96.671 347.6,100.573C336.325,114.263 335.772,113.669 320.408,130.413Z" style="fill:rgb(5,42,116);fill-opacity:0.99;"/>
        <path d="M154.472,316.894C158.197,317.743 158.079,317.904 161.559,319.33C163.98,320.323 163.704,318.95 164.747,318.148C167.796,321.253 166.132,321.782 165.299,324.444C164.954,325.546 164.005,328.58 168.417,338.535C169.788,341.628 171.069,343.414 172.2,340.495C175.302,339.574 175.534,339.925 177.565,342.432C180.582,346.158 185.796,345.043 187.747,334.524C188.705,333.754 188.651,333.861 189.48,333.032C189.891,333.067 192.52,333.286 194.5,334.227C194.404,337.034 196.994,343.325 197.11,347.578C197.212,351.369 197.936,351.182 197.897,351.5C197.838,351.984 197.103,352.101 196.845,352.514C196.769,352.636 196.74,354.492 195.295,355.379C193.434,356.523 193.678,356.807 193.5,356.862C193.147,356.969 193.035,356.185 192.67,356.13C191.952,356.022 191.234,356.366 190.509,356.413C188.095,356.568 180.325,355.419 179.936,354.242C178.973,351.334 176.118,350.276 170.52,348.469C165.877,344.272 165.865,344.402 165.5,344.007L164.5,343.895L165.099,342.5C165.647,342.021 166.195,341.541 166.743,341.062C166.147,339.833 161.162,329.568 162.738,324.464C164.494,318.78 149.465,325.203 148.212,317.439C148.388,317.422 150.41,317.22 150.41,317.22C151.92,318.453 151.978,318.83 152.347,318.393C153.254,317.317 153.246,317.445 154.472,316.894Z" style="fill:rgb(147,169,199);fill-opacity:0.99;"/>
        <path d="M192.479,251.365L193.447,251.998C198.02,257.73 183.746,275.148 184.19,278.595C184.787,283.221 196.423,265.659 197.277,264.37C197.908,264.563 197.433,266.576 200.445,265.342C206.585,262.827 206.985,262.674 212.832,265.743C211.686,267.078 211.545,267.242 196.117,280.029C190.559,284.635 190.633,284.581 184.889,288.967C171.758,298.993 179.868,279.47 184.014,267.347C188.165,255.207 187.819,253.14 192.479,251.365Z" style="fill:rgb(246,125,9);fill-opacity:0.99;"/>
        <path d="M219.669,216.305L218.545,217.5C216.869,218.786 209.767,226.258 209.024,227.039C208.272,227.83 208.587,227.993 208.5,228.001C207.591,228.086 207.969,227.138 207.046,227.225C212.88,216.31 209.445,215.338 208.625,215.767C204.108,218.13 188.749,249.759 195.684,226.556C199.012,215.425 203.059,201.215 189.555,206.612C189.448,206.655 178.958,212.884 181.846,208.691C182.296,208.038 193.808,195.931 194.856,194.829C197.154,192.412 197.472,195.052 216.257,212.763C216.543,213.033 216.509,213.026 219.669,216.305Z" style="fill:rgb(250,130,8);fill-opacity:0.99;"/>
        <path d="M222.06,312.517C223.439,298.797 252.386,274.8 254.478,274.408C259.05,273.55 253.904,276.635 244.586,300.542C244.497,300.771 241.083,306.421 235.622,308.765C225.336,313.179 223.453,317.454 222.06,312.517Z" style="fill:rgb(250,128,10);fill-opacity:1;"/>
        <path d="M188.073,236.415C185.164,244.657 185.809,245.604 173.603,253.657C166.667,258.233 150.204,261.39 161.431,252.416C174.654,241.846 192.417,219.512 190.805,226.482C190.62,227.285 190.603,227.218 188.073,236.415Z" style="fill:rgb(249,129,9);fill-opacity:0.99;"/>
        <path d="M121.423,360.612C138.466,372.678 155.968,368.77 149.293,376.341C144.804,381.433 112.73,368.209 110.14,358.606C107.504,348.832 117.604,357.943 121.423,360.612Z" style="fill:rgb(182,201,222);fill-opacity:0.99;"/>
        <path d="M219.669,216.305C222.863,219.255 222.832,219.14 225.727,222.324C213.069,235.023 210.654,235.332 203.203,245.276C200.489,248.897 199.663,247.953 199.5,248.299C199.264,248.798 199.937,249.444 199.701,249.944C198.621,250.404 197.541,250.865 196.461,251.325C195.056,250.572 195.128,250.589 193.966,249.535C195.096,242.775 197.067,243.712 202.099,235.259C204.543,231.154 204.492,231.225 207.046,227.225C207.969,227.138 207.591,228.086 208.5,228.001C208.587,227.993 208.272,227.83 209.024,227.039C209.767,226.258 216.869,218.786 218.545,217.5L219.669,216.305Z" style="fill:rgb(251,181,67);fill-opacity:0.99;"/>
        <path d="M165.728,230.623C169.983,224.35 170.228,224.593 177.185,220.012C178.283,219.288 190.224,211.425 191.433,211.804C196.612,213.429 174.485,232.713 161.899,245.917C152.769,255.495 160.749,241.283 165.728,230.623Z" style="fill:rgb(248,129,8);fill-opacity:0.99;"/>
        <path d="M267.515,264.482C265.219,268.94 262.986,271.031 262.481,271.503C256.458,267.134 252.824,267.944 239.121,279.062C234.397,282.895 232.999,278.066 235.685,275.736C248.574,264.553 246.803,262.113 256.469,258.407C262.037,256.271 261.883,259.42 267.515,264.482Z" style="fill:rgb(202,73,3);fill-opacity:0.99;"/>
        <path d="M133.739,352.161L132.5,353.457C126.799,353.898 133.336,358.225 133.678,358.452C133.834,358.555 140.628,360.76 141.234,360.957C144.553,362.034 147.912,362.428 148.502,362.497C149.495,362.614 150.549,362.192 151.501,362.496C152.314,362.755 152.687,363.834 153.5,364.094L154.418,365.143C136.717,366.104 114.789,354.09 112.928,341.472C111.374,330.933 121.8,345.65 133.739,352.161Z" style="fill:rgb(214,228,239);fill-opacity:0.99;"/>
        <path d="M135.869,337.17C140.123,341.18 148.613,347.493 149.162,347.949C167.575,363.213 117.65,343.258 123.861,332.696C127.669,326.221 132.093,333.48 135.869,337.17Z" style="fill:rgb(193,211,229);fill-opacity:0.99;"/>
        <path d="M217.773,275.286C218.29,276.07 219.073,276.655 219.59,277.439C222.463,281.793 188.797,298.723 185.825,296.114C184.022,294.532 186.455,294.522 208.308,276.281L209.5,276.685L210.5,277.771C212.57,277.623 212.489,277.542 214.47,277.081C217.956,276.271 217.485,275.471 217.773,275.286Z" style="fill:rgb(243,122,9);fill-opacity:0.99;"/>
        <path d="M197.277,264.37C199.801,259.621 199.022,259.058 202.798,255.861C205.178,253.846 221.17,247.533 221.42,247.677C223.557,248.911 213.692,264.393 212.832,265.743C206.985,262.674 206.585,262.827 200.445,265.342C197.433,266.576 197.908,264.563 197.277,264.37Z" style="fill:rgb(210,81,4);fill-opacity:0.99;"/>
        <path d="M346.063,140.512C343.797,157.334 324.38,151.413 331.85,139.717C334.474,135.607 343.25,128.578 346.063,140.512Z" style="fill:rgb(250,130,7);fill-opacity:0.99;"/>
        <path d="M150.09,292.578C151.606,298.628 151.822,298.491 153.705,304.436C154.798,307.884 143.848,305.019 143.364,304.823C133.827,300.959 143.284,310.806 153.492,312.547C159.884,313.637 159.706,314.116 164.747,318.148C163.704,318.95 163.98,320.323 161.559,319.33C158.079,317.904 158.197,317.743 154.472,316.894C154.001,316.461 153.972,315.671 153.501,315.238C153.266,315.022 153.183,315.412 149.661,314.158C136.926,309.754 138.769,307.246 137.156,303.438C136.752,302.485 136.441,303.119 133.5,303.878C133.187,303.361 130.855,301.667 133.617,300.925C139.584,299.32 147.907,304.637 149.671,302.747C150.256,302.12 146.328,293.752 148.177,291.5C148.815,291.859 149.453,292.219 150.09,292.578Z" style="fill:rgb(173,196,220);fill-opacity:0.99;"/>
        <path d="M183.669,330.184C184.942,330.445 186.949,331.3 189.302,329.285C193.076,326.053 193.392,328.941 195.612,333.445L194.5,334.227C192.52,333.286 189.891,333.067 189.48,333.032C188.809,333.24 189.141,332.26 188.531,332.448C188.362,332.501 188.475,332.598 187.747,334.524C185.796,345.043 180.582,346.158 177.565,342.432C175.534,339.925 175.302,339.574 172.2,340.495L172.151,338.561C174.139,336.932 174.561,337.058 174.503,334.501C174.431,331.395 178.219,334.903 179.889,331.885C179.889,331.885 182.291,331.169 182.5,331.107L183.669,330.184Z" style="fill:rgb(184,204,223);fill-opacity:0.99;"/>
        <path d="M267.515,264.482C267.762,264.713 270.185,266.976 270.63,267.343C276.224,271.953 271.646,273.076 268.941,275.926C261.986,283.252 257.195,293.211 255.503,293.187C251.569,293.131 260.99,281.549 262.481,271.503C262.986,271.031 265.219,268.94 267.515,264.482Z" style="fill:rgb(246,127,7);fill-opacity:0.99;"/>
        <path d="M347.024,125.51C347.162,124.464 348.403,115.03 356.522,116.36C368.67,118.349 349.888,139.754 347.024,125.51Z" style="fill:rgb(251,131,5);fill-opacity:0.99;"/>
        <path d="M133.739,352.161C152.642,361.38 157.589,359.826 159.168,361.81C159.458,362.173 159.756,362.909 154.418,365.143L153.5,364.094C152.687,363.834 152.314,362.755 151.501,362.496C150.549,362.192 149.495,362.614 148.502,362.497C147.912,362.428 144.553,362.034 141.234,360.957C140.628,360.76 133.834,358.555 133.678,358.452C133.336,358.225 126.799,353.898 132.5,353.457L133.739,352.161Z" style="fill:rgb(154,178,206);fill-opacity:0.99;"/>
        <path d="M217.901,301.607C218.311,300.555 221.776,291.656 223.974,288.867C228.808,282.736 231.917,286.579 230.442,288.46C222.26,298.891 221.079,304.391 219.193,306.192C216.095,309.152 217.813,301.978 217.901,301.607Z" style="fill:rgb(237,112,5);fill-opacity:1;"/>
        <path d="M183.669,330.184L182.5,331.107C182.291,331.169 179.889,331.885 179.889,331.885C178.219,334.903 174.431,331.395 174.503,334.501C174.561,337.058 174.139,336.932 172.151,338.561C172.114,337.995 171.697,331.495 171.697,331.495C171.683,321.672 177.761,326.62 183.669,330.184Z" style="fill:rgb(216,230,241);fill-opacity:0.99;"/>
        <path d="M130.518,288.913L129.5,289.735C129.224,290.181 128.401,290.054 128.125,290.5C128,290.702 128.466,290.65 127.982,293.467C127.651,295.396 128.059,298.164 128.119,298.568C128.217,299.232 128.849,299.847 128.692,300.5C128.563,301.035 127.535,301.001 127.407,301.536C124.927,296.708 124.071,296.988 123.752,291.492C123.486,286.913 125.908,288.808 130.518,288.913Z" style="fill:rgb(173,195,220);fill-opacity:0.99;"/>
        <path d="M217.773,275.286C217.485,275.471 217.956,276.271 214.47,277.081C212.489,277.542 212.57,277.623 210.5,277.771L209.5,276.685L208.308,276.281C212.808,272.216 212.427,270.271 215.462,271.559C215.785,271.696 216.17,271.859 217.773,275.286Z" style="fill:rgb(212,87,4);fill-opacity:1;"/>
        <path d="M122.666,282.877C117.89,286.075 118.377,286.72 117.967,292.477C117.014,292.482 116.826,294.416 115.874,294.422C115.743,294.422 114.936,288.585 116.702,286.5L117.152,285.5C117.321,285.254 116.696,284.897 116.865,284.651C118.321,282.528 120.149,281.935 120.5,281.821C122.845,281.06 122.189,282.645 122.666,282.877Z" style="fill:rgb(1,27,96);fill-opacity:0.99;"/>
        <path d="M248.539,156.456C243.87,152.176 252.745,153.416 253.745,154.093C254.533,154.627 256.031,160.791 248.539,156.456Z" style="fill:rgb(236,195,103);fill-opacity:0.99;"/>
        <path d="M304.086,214.968C303.737,214.678 299.724,211.34 299.724,211.34C293.721,205.631 305.209,212.041 305.627,212.274C307.229,213.169 308.272,218.608 304.086,214.968Z" style="fill:rgb(226,112,10);fill-opacity:0.99;"/>
        <path d="M254.931,160.932C257.254,161.019 256.121,162.317 258.699,168.462C260.72,173.28 252.595,167.373 254.931,160.932Z" style="fill:rgb(218,146,19);fill-opacity:0.99;"/>
        <path d="M149.711,261.355C149.944,261.597 149.883,261.568 152.527,264.469C150.975,265.202 150.44,264.723 150.215,266.174C150.175,266.437 149.783,268.97 149.355,269.387C146.632,272.04 148.625,266.029 148.526,265.484C148.019,262.705 148.912,262.756 149.711,261.355Z" style="fill:rgb(2,38,86);fill-opacity:0.04;"/>
        <path d="M149.661,314.158C153.183,315.412 153.266,315.022 153.501,315.238C153.972,315.671 154.001,316.461 154.472,316.894C153.246,317.445 153.254,317.317 152.347,318.393C151.978,318.83 151.92,318.453 150.41,317.22C150.41,317.22 148.388,317.422 148.212,317.439C148.154,315.472 148.064,315.461 148.15,315.314C148.651,314.454 149.149,315.037 149.661,314.158Z" style="fill:rgb(167,191,215);fill-opacity:0.99;"/>
        <path d="M181.551,304.367C182.336,304.541 183.904,305.254 187.5,305.482C186.197,306.789 184.454,309.583 182.709,308.223C180.935,306.841 181.627,306.525 181.551,304.367Z" style="fill:rgb(16,43,93);fill-opacity:0.08;"/>
        <path d="M36.53,328.139C39.702,327.616 40.087,327.619 41.647,330.438C41.518,330.717 42.042,331.043 41.913,331.322C40.103,335.229 39.571,331.181 36.53,328.139Z" style="fill:rgb(2,32,133);fill-opacity:0.04;"/>
        <path d="M24.428,213.603C26.631,214.788 26.521,214.83 28.605,216.294L27.5,216.765C26.401,219.179 26.498,219.212 26.34,219.377C24.368,221.439 24.885,216.913 24.582,216.429C24.011,215.514 24.379,215.477 24.17,214.5L24.428,213.603Z" style="fill:rgb(4,40,117);fill-opacity:0.07;"/>
        <path d="M212.51,420.871C212.421,418.581 212.252,418.517 212.414,418.404C215.089,416.536 216.032,419.553 216.493,420.707C215.165,420.762 213.838,420.816 212.51,420.871Z" style="fill:rgb(0,25,119);fill-opacity:0.06;"/>
        <path d="M95.078,158.133C96.178,160.087 96.772,160.102 96.101,161.237C94.522,163.906 93.306,160.376 93.227,160.249C93.844,159.543 94.461,158.838 95.078,158.133Z" style="fill:rgb(1,23,125);fill-opacity:0.05;"/>
        <path d="M162.849,215.869C161.884,216.885 161.94,216.83 160.913,217.803C158.247,214.154 160.236,214.021 160.54,214.022C160.776,214.023 160.708,214.157 162.849,215.869Z" style="fill:rgb(8,25,138);fill-opacity:0.05;"/>
        <path d="M154.784,266.008L156.412,266.728C155.922,268.881 156.593,270.049 154.452,269.636C151.974,269.158 153.641,268.173 154.784,266.008Z" style="fill:rgb(18,30,125);fill-opacity:0.05;"/>
        <path d="M219.806,151.829C218.827,152.887 218.877,152.833 217.907,153.831C217.587,153.253 216.768,153.07 216.449,152.493C216.179,152.006 217.533,149.533 218.547,150.175C219.132,150.545 219.22,151.458 219.806,151.829Z" style="fill:rgb(28,37,123);fill-opacity:0.05;"/>
        <path d="M166.493,266.476L167.379,266.173C171.583,268.521 168.782,269.532 168.512,269.464C167.384,269.177 167.685,268.82 166.493,266.476Z" style="fill:rgb(1,53,133);fill-opacity:0.05;"/>
        <path d="M93.78,351.297C94.361,352.025 94.943,352.753 95.524,353.481C90.456,358.773 93.689,351.502 93.78,351.297Z" style="fill:rgb(0,7,95);fill-opacity:0.07;"/>
        <path d="M45.662,389.394C46.083,389.945 46.503,390.497 46.923,391.048C43.752,395.87 43.988,390.72 44.066,390.5C44.281,389.889 45.447,390.005 45.662,389.394Z" style="fill:rgb(1,40,152);fill-opacity:0.04;"/>
        <path d="M158.706,401.066C160.225,401.582 160.115,401.559 161.572,402.293C161.354,402.486 157.397,405.993 157.941,402.182C158.005,401.736 158.642,401.512 158.706,401.066Z" style="fill:rgb(0,34,147);fill-opacity:0.08;"/>
        <path d="M95.804,79.963C95.437,80.222 95.07,80.482 94.702,80.741C93.729,78.828 93.156,78.858 93.87,77.742C93.946,77.623 94.929,76.086 95.587,77.332C95.998,78.11 95.393,79.185 95.804,79.963Z" style="fill:rgb(2,17,174);fill-opacity:0.04;"/>
        <path d="M118.778,419.071L120.257,419.938C117.274,421.964 116.677,421.789 116.348,421.693C115.289,421.383 116.128,420.396 118.778,419.071Z" style="fill:rgb(0,21,114);fill-opacity:0.05;"/>
        <path d="M123.855,143.975C123.479,144.219 123.103,144.464 122.727,144.709C121.685,142.254 121.83,141.94 121.933,141.715C123.334,138.68 123.831,143.738 123.855,143.975Z" style="fill:rgb(0,60,171);fill-opacity:0.05;"/>
        <path d="M180.274,318.957C182.218,317.023 182.135,316.842 182.369,316.873C184.577,317.156 182.744,318.002 181.352,319.711C180.992,319.46 180.633,319.208 180.274,318.957Z" style="fill:rgb(6,13,123);fill-opacity:0.06;"/>
        <path d="M417.15,83.826C417.291,83.634 419.492,80.651 419.72,82.327C419.824,83.089 419.606,83.422 419.554,83.501C419.003,84.342 418.678,83.918 418.087,84.822C417.774,84.49 417.462,84.158 417.15,83.826Z" style="fill:rgb(4,63,70);fill-opacity:0.04;"/>
        <path d="M382.392,203.223C382.79,201.873 382.715,201.958 382.79,201.873C384.557,199.86 384.435,204.27 384.429,204.519C384.286,204.389 384.275,204.438 382.392,203.223Z" style="fill:rgb(12,53,186);fill-opacity:0.18;"/>
        <path d="M133.473,271.662C133.391,269.271 133.149,269.131 133.648,268.935C133.776,268.884 135.149,268.345 135.166,269.757C135.174,270.485 134.424,271.087 134.432,271.815L133.473,271.662Z" style="fill:rgb(1,19,107);fill-opacity:0.04;"/>
        <path d="M193.966,249.535C195.128,250.589 195.056,250.572 196.461,251.325C194.885,251.462 194.975,251.471 193.447,251.998L192.479,251.365C192.974,250.755 193.47,250.145 193.966,249.535Z" style="fill:rgb(121,76,65);fill-opacity:0.99;"/>
        <path d="M211.502,398.512C213.491,397.681 213.544,397.687 215.509,398.438C213.453,398.421 213.564,398.419 211.502,398.512Z" style="fill:rgb(3,76,182);fill-opacity:0.22;"/>
        <path d="M189.48,333.032C188.651,333.861 188.705,333.754 187.747,334.524C188.475,332.598 188.362,332.501 188.531,332.448C189.141,332.26 188.809,333.24 189.48,333.032Z" style="fill:rgb(156,178,204);fill-opacity:0.99;"/>
        <path d="M213.495,411.527C214.497,411.516 215.498,411.505 216.499,411.494C214.973,412.013 215.014,412.001 213.495,411.527Z" style="fill:rgb(0,74,180);fill-opacity:0.3;"/>
        <path d="M321.524,241.353C322.516,241.415 323.508,241.477 324.499,241.538C322.93,241.917 322.987,241.833 321.524,241.353Z" style="fill:rgb(23,64,110);fill-opacity:0.36;"/>
        <path d="M68.218,324.695C68.791,325.98 68.991,325.894 68.912,327.35C68.681,326.465 68.45,325.58 68.218,324.695Z" style="fill:rgb(4,50,173);fill-opacity:0.29;"/>
        <path d="M226.441,140.519C226.978,141.939 227.075,141.873 227.14,143.407C226.496,140.844 226.485,140.874 226.441,140.519Z" style="fill:rgb(17,67,107);fill-opacity:0.37;"/>
        <path d="M209.71,301.547C209.493,302.507 209.277,303.466 209.06,304.425C208.978,302.884 209.087,302.97 209.71,301.547Z" style="fill:rgb(16,41,132);fill-opacity:0.42;"/>
        <path d="M154.9,229.662C154.991,231.131 154.95,231.04 154.41,232.478L154.9,229.662Z" style="fill:rgb(26,60,108);fill-opacity:0.44;"/>
        <path d="M351.948,31.709L352.562,31.724L351.775,32.562L351.948,31.709Z" style="fill:rgb(153,105,73);fill-opacity:0.99;"/>
    </g>
</svg>
