<?xml version="1.0" encoding="UTF-8" standalone="no"?><!DOCTYPE svg PUBLIC "-//W3C//DTD SVG 1.1//EN" "http://www.w3.org/Graphics/SVG/1.1/DTD/svg11.dtd"><svg width="100%" height="100%" viewBox="0 0 1371 458" version="1.1" xmlns="http://www.w3.org/2000/svg" xmlns:xlink="http://www.w3.org/1999/xlink" xml:space="preserve" xmlns:serif="http://www.serif.com/" style="fill-rule:evenodd;clip-rule:evenodd;stroke-linejoin:round;stroke-miterlimit:2;"><g id="g2"><g id="Background-0"><path id="path1-9" d="M981.674,218.802c2.747,8.492 3.739,15.414 6.625,28.092c0.45,1.983 0.9,3.966 1.349,5.949l0.306,1.138c1.252,4.944 0.86,4.983 2.362,9.894c0.322,2.068 0.287,2.02 0.636,4.085c0.477,2.82 -0.569,4.931 2.08,3.739c0,0 0.949,-4.461 1.032,-4.849l0.396,-2.884c0.894,-3.573 0.89,-3.512 1.702,-7.084c1.533,-7.465 2.017,-11.078 4.22,-18.943c0.299,-1.011 0.597,-2.022 0.895,-3.033c0.882,-4.531 0.854,-4.488 1.184,-5.943c0.817,-2.574 0.773,-2.527 1.423,-5.167c0.197,-0.944 0.395,-1.888 0.592,-2.832c0.205,-0.699 0.409,-1.398 0.614,-2.097c0.362,-1.847 3.239,-16.52 5.29,-22.928c2.048,-6.403 1.155,-6.565 3.005,-13c1.096,-3.814 0.149,-6.053 3.875,-6.083c3.035,-0.024 36.966,-0.297 37.938,0.18c1.432,0.703 1.115,9.279 1.006,9.855c-0.662,3.494 0.341,3.461 0.127,7.017c-0.443,7.369 0.058,7.363 0.002,8c-0.267,3.041 0.119,2.992 0.026,5.996c-0.257,8.271 -0.033,8.277 -0.162,8.985c-0.729,4.004 0.135,3.969 0.162,8.013c0.009,1.361 0.101,15.515 -0.025,17.006c-0.334,3.926 0.337,94.183 -0.142,94.961c-0.458,0.742 -0.612,1.35 -23.932,1.042c-2.301,-0.087 -2.447,0.611 -4.331,-0.737c-1.417,-1.014 -0.176,-15.654 -0.7,-27.269c0.336,-2.019 0.341,-1.978 0.136,-3.988c-0.046,-1.337 -0.093,-2.675 -0.139,-4.012c0.095,-0.686 0.065,-0.625 0.216,-3.995c-0.099,-1.437 0.003,-1.43 -0.213,-18.006c0.074,-2.004 0.221,-5.496 0.241,-5.974c0.005,-1.019 0.01,-2.038 0.015,-3.057c0.202,-2.012 0.092,-1.968 -0.022,-3.941c-0.03,-4.04 0.031,-8.278 0.041,-8.998l-0.178,-2.031c-0.027,-2.991 0.226,-2.911 0.16,-5.976l-0.158,-2.024c0.315,-3.019 0.318,-2.971 0.182,-5.969c0.047,-2.02 0.094,-4.039 0.142,-6.059c0.088,-1.549 0.031,-1.495 -0.274,-2.957c0.241,-4.828 0.412,-5.158 0.747,-10.008c0.669,-9.694 -2.388,0.855 -2.417,1.064c-0.214,1.526 -1.726,12.313 -3.231,18.986l-0.095,0.987c-1.153,4.508 -2.004,8.223 -2.169,8.941c-1.362,5.82 -13.018,55.643 -16.322,72.914l-0.325,1.162c-0.554,2.416 -1.957,10.241 -2.498,10.725c-0.78,0.699 -0.885,0.315 -4.807,0.133c-6.03,0.361 -5.957,0.36 -12.011,0.239c-2.863,-0.057 -2.116,-1.249 -2.46,-4.068c-5.031,-22.645 -5.174,-23.085 -5.806,-25.042c-0.859,-2.919 -0.718,-2.903 -1.11,-5.959c-0.49,-1.71 -0.98,-3.421 -1.47,-5.132c-0.295,-2.181 -0.37,-2.136 -3.051,-13.984c-0.378,-2.25 -4.114,-19.344 -4.512,-20.862c-0.968,-5.172 -1.058,-5.089 -2.335,-10.173c-0.331,-2.034 -0.378,-1.977 -1.298,-5.928c-0.747,-2.83 -0.749,-2.81 -0.806,-3.056c-0.229,-0.975 -0.1,-0.956 -0.326,-1.922c-0.452,-2.539 -0.366,-2.517 -1.153,-4.979c-2.239,-8.892 -2.393,-17.441 -3.663,-17.446c-1.836,-0.006 0.036,2.673 -0.543,35.385c0.009,2.004 0.018,4.009 0.027,6.013c0.012,0.56 0.064,3.005 -0.026,7.003l0.028,0.996l0.217,4.029l0.04,0.935c-0.062,2.04 -0.125,4.079 -0.187,6.118c-0.008,0.713 -0.056,4.918 0.048,8.91c-0.132,3.682 -0.033,5.937 0.227,8.977c-0.178,2.554 -0.244,2.503 -0.211,5.101c-0.011,1.994 0.011,1.943 -0.142,3.956c0.235,7.012 0.023,6.949 0.166,13.967c-0.397,8.005 0.44,7.95 0.069,15.965c-0.034,0.743 -3.407,0.969 -3.714,0.99c-4.539,0.032 -4.49,-0.04 -8.999,-0.002c-7.027,0.44 -6.98,-0.021 -13.974,-0.075c-1.504,-0.011 -1.581,-0.328 -1.505,-1.858c0.173,-3.468 -0.062,-54.043 -0.112,-55.026c0.275,-5.074 0.179,-7.334 0.152,-7.971c-0.275,-6.507 -0.259,-6.462 -0.163,-13.015c0.216,-14.744 -0.024,-14.721 -0.001,-16.001c0.529,-29.556 -0.246,-65.646 0.299,-66.263c1.409,-1.595 41.188,-0.571 41.228,-0.554c0.646,0.261 1.151,0.269 8.545,32.7c1.888,8.281 1.781,8.293 1.945,9.012Z" style="fill:#fd7100;fill-opacity:0.99;"/><path id="path2-4" d="M828.245,174.714c10.183,-0.215 20.375,-1.399 34.769,6.681c10.137,6.355 13.796,14.588 15.511,18.389c1.189,3.126 3.909,7.931 4.054,20.114c0.958,80.486 -0.201,84.029 -2.463,90.947c-0.516,1.37 -3.951,10.48 -8.956,15.963c-0.158,0.158 -0.997,0.995 -2.041,1.913c-11.277,8.681 -16.356,11.579 -39.86,11.197c-5.554,-0.295 -6.961,-0.051 -18.07,-3.806c-7.374,-2.493 -17.588,-11.303 -20.449,-18.432c-1.578,-3.395 -1.572,-3.371 -1.705,-3.666c-0.278,-0.619 -0.178,-0.593 -0.472,-1.247c-3.731,-9.713 -3.662,-14.028 -3.67,-23.865c-0.051,-66.497 -0.683,-76.658 2.595,-84.918c7.659,-19.302 17.833,-24.608 30.841,-27.865c4.955,-0.953 4.892,-1.073 9.916,-1.405Zm0.114,28.421c8.74,-1.839 14.785,-1.449 19.138,7.688c-1.146,1.233 -2.69,2.547 -1.627,3.364c0.175,0.134 0.597,0.458 2.428,-1.292c0.43,13.505 0.584,13.439 0.585,27.006c0.002,64.128 0.817,65.683 -4.955,69.602c-8.617,5.852 -23.651,2.563 -23.658,-11.6c-0.001,-3.517 0.004,-3.466 -0.389,-6.956c-0.232,-2.071 0.338,-2.052 0.364,-26.044c0.033,-29.524 0.053,-32.199 0.075,-34.999c0.336,-1.523 0.339,-1.481 0.002,-3.001c-0.761,-14.733 0.338,-18.566 6.103,-22.681c2.208,1.621 2.502,1.49 2.725,1.39c1.647,-0.734 0.444,-1.198 -0.791,-2.477Zm19.138,7.688c0.267,0.69 0.534,1.381 0.801,2.072c-1.831,1.75 -2.253,1.426 -2.428,1.292c-1.063,-0.817 0.481,-2.131 1.627,-3.364Zm-19.138,-7.688c1.235,1.279 2.438,1.743 0.791,2.477c-0.223,0.1 -0.517,0.231 -2.725,-1.39l1.934,-1.087Z" style="fill:#006be6;fill-opacity:0.99;"/><path id="path3-8" d="M1130.116,175.317c4.729,0.697 4.649,0.858 9.191,2.377c1.219,0.568 2.439,1.137 3.659,1.705c3.745,1.587 3.531,1.885 6.987,3.952c0.363,0.298 0.725,0.596 1.088,0.894c12.315,7.963 14.811,25.167 15.174,27.665c0.168,1.658 0.336,3.315 0.504,4.973c0.026,3.808 -0.194,3.784 0.29,7.073c0.112,1.456 0.112,1.38 0.105,2.909c-0.057,0.258 -0.704,1.955 -0.38,4.975c0.915,8.548 -0.395,8.558 0.3,17.112c-0.01,0.969 -0.019,1.938 -0.029,2.907c-0.647,4.951 -0.114,4.888 -0.159,9.929c-0.039,0.685 -0.079,1.37 -0.118,2.054l0.143,2.936l-0.169,2.123c0.028,3.483 -0.015,3.428 0.122,6.926c-0.397,7.97 1.487,25.027 -1.915,35.944c-0.457,1.074 -0.914,2.148 -1.37,3.222c-4.451,11.171 -9.506,13.836 -13.603,17.495c-11.025,6.688 -18.346,6.789 -20.712,7.251c-1.654,0.074 -3.308,0.148 -4.962,0.222c-4.852,0.39 -8.03,0.764 -13.972,-0.2c-2.969,-0.729 -2.89,-0.741 -6.019,-0.885c-2.887,-0.94 -2.881,-0.941 -3.01,-0.976c-9.54,-3.412 -9.404,-3.718 -9.96,-4.076l-0.761,-0.359c-0.854,-0.434 -4.107,-2.091 -9.322,-7.522c-2.917,-3.019 -4.548,-6.485 -4.841,-7.107c-0.216,-0.378 -0.433,-0.756 -0.65,-1.134c-4.096,-7.867 -3.468,-8.074 -3.613,-8.76l-0.878,-3.035c-0.601,-4.53 -0.578,-4.448 -1.145,-8.993l-0.058,-3.007c0.062,-7.9 0.06,-7.899 0.065,-8.005c-0.029,-8.926 -0.035,-8.916 -0.024,-10.001c-0.017,-1.33 -0.035,-2.659 -0.052,-3.989c-0.124,-5.528 -0.1,-5.47 0.042,-11.008c-0.023,-2 -0.045,-3.999 -0.067,-5.999c-0.012,-5.549 -0.017,-5.514 -0.013,-5.993c0.013,-1.534 0.093,-1.464 0.106,-3.011l-0.003,-1c0,-2.333 -0.001,-4.666 -0.001,-6.999c-0.003,-5.544 -0.064,-5.498 -0.05,-11.005c0.015,-1.665 0.03,-3.33 0.045,-4.995c0.046,-2.001 0.091,-4.002 0.136,-6.003c0.016,-0.998 0.032,-1.997 0.049,-2.996c1.052,-5.005 1.02,-4.953 2.226,-9.92c0.61,-1.598 5.675,-16.353 18.981,-22.621c15.606,-8.392 35.001,-5.304 38.643,-5.045Zm-7.714,27.116l-1.142,0.782c0.022,0.109 -1.244,0.727 0.248,1.258c2.666,0.951 2.518,1.304 2.763,1.311c0.199,0.005 0.135,-0.12 1.869,-1.653c1.616,1.074 1.608,1.063 1.745,1.16c0.312,0.22 0.18,0.301 0.483,0.516c-0.142,0.163 -3.978,4.574 -0.106,2.697c0.521,-0.252 0.811,-0.915 1.369,-1.065c0.244,-0.066 0.267,0.625 0.511,0.56c0.321,0.652 0.641,1.305 0.962,1.957c0.918,2.441 1.778,3.241 1.852,13.943c-0.014,1.28 0.036,1.242 -0.044,15.999c0.01,2.668 0.02,5.335 0.03,8.003l-0.936,-0.998c-0.339,0.02 -0.407,-0.714 -0.746,-0.694c-0.55,0.033 -0.521,1.929 -1.035,3.677c-0.908,3.083 0.703,2.421 0.873,2.319c0.205,-0.124 0.141,-0.171 1.905,-2.305c-0.213,19.005 -0.073,18.938 -0.039,38.007l-0.909,-1.004l-0.795,-0.74c-2.063,4.515 -0.332,4.593 0,4.461c0.745,-0.297 0.94,-1.422 1.685,-1.719c0.001,1.437 0.007,14.776 -1.923,17.861c-5.169,8.266 -16.519,4.981 -17.942,4.569l1.18,-0.665c-0.049,-0.635 0.847,-0.104 0.796,-0.767c-0.008,-0.096 -0.137,0.031 -0.915,-0.782c-1.612,-1.685 -0.652,-3.284 -2.943,-2.859c-1.775,0.329 -0.504,1.01 0.284,2.641l-0.474,1.39c-3.146,-2.295 -4.253,-2.776 -5.534,-8.411c-0.284,-1.007 -0.252,-0.967 -0.546,-1.939c-0.944,-3.111 -0.278,-54.319 -0.217,-59.042c0.334,-25.677 -1.034,-29.449 4.337,-35.286c1.363,1.285 1.399,2.049 3.117,1.099c1.075,-0.595 0.276,-0.84 -0.779,-2.568c5.231,-2.267 5.317,-1.822 11.016,-1.713Zm-11.394,107.86l0.474,-1.39c-0.788,-1.631 -2.059,-2.312 -0.284,-2.641c2.291,-0.425 1.331,1.174 2.943,2.859c0.778,0.813 0.907,0.686 0.915,0.782c0.051,0.663 -0.845,0.132 -0.796,0.767l-1.18,0.665c-0.691,-0.347 -1.381,-0.694 -2.072,-1.042Zm21.934,-62.392l0.061,1.999c-1.764,2.134 -1.7,2.181 -1.905,2.305c-0.17,0.102 -1.781,0.764 -0.873,-2.319c0.514,-1.748 0.485,-3.644 1.035,-3.677c0.339,-0.02 0.407,0.714 0.746,0.694l0.936,0.998Zm-10.54,-45.468c1.956,0.678 2.02,0.476 3.738,1.698c-1.734,1.533 -1.67,1.658 -1.869,1.653c-0.245,-0.007 -0.097,-0.36 -2.763,-1.311c-1.492,-0.531 -0.226,-1.149 -0.248,-1.258l1.142,-0.782Zm10.562,85.474l-0.019,0.998c-0.745,0.297 -0.94,1.422 -1.685,1.719c-0.332,0.132 -2.063,0.054 0,-4.461l0.795,0.74l0.909,1.004Zm-21.578,-83.761c1.055,1.728 1.854,1.973 0.779,2.568c-1.718,0.95 -1.754,0.186 -3.117,-1.099c1.232,-0.725 1.125,-0.771 2.338,-1.469Zm16.982,1.661c1.001,1.053 0.95,0.991 1.774,2.192c-0.244,0.065 -0.267,-0.626 -0.511,-0.56c-0.558,0.15 -0.848,0.813 -1.369,1.065c-3.872,1.877 -0.036,-2.534 0.106,-2.697Z" style="fill:#fe7100;fill-opacity:0.99;"/><path id="path4-8" d="M1245.249,180.903c0.097,-2.728 0.033,-2.722 0.105,-2.947c0.35,-1.09 5.425,-1.135 5.906,-1.139c21.503,-0.193 22.67,-0.599 22.563,1.206c-0.477,8.103 -0.034,8.561 0.064,9.88c-0.253,4.011 -0.345,3.928 -0.332,7.008c-0.13,50.649 0.014,50.59 -0.013,54.989l-0.025,0.999c0.163,16.004 0.138,15.937 0.01,32.002c0.044,4.633 0.186,4.545 0.052,14.003c-0.429,30.362 0.774,30.351 0.516,32.977c-0.63,6.421 0.23,6.455 -0.006,6.96c-0.841,1.801 -1.407,1.478 -24.816,1.247c-4.264,-0.042 -3.601,-2.323 -4.319,-4.062c-2.904,-7.553 -14.753,-40.09 -14.986,-41.013c-0.612,-1.691 -1.223,-3.381 -1.835,-5.072c-2.35,-6.555 -2.493,-6.447 -4.806,-13.068l-0.917,-2.034c-9.844,-27.771 -10.036,-27.648 -10.842,-30.075c-1.343,-4.979 -1.152,-5.446 -2.294,-5.485c-0.249,-0.009 -0.521,-0.356 -0.719,-0.205c-0.432,0.331 -0.451,0.467 0.48,6.781c-0.549,5.09 0.497,5.016 0.275,10.049c-1.451,32.931 0.172,78.089 -0.545,82.9c-0.056,0.372 -0.641,0.516 -0.697,0.888l-1.808,0.223c-22.319,0.191 -22.356,0.744 -26.766,-0.245c-0.267,-1.262 -0.535,-2.524 -0.802,-3.786c0.324,-2.015 0.27,-1.96 0.356,-3.977c-0.006,-2.334 -0.013,-4.668 -0.019,-7.002c0.015,-2.999 0.03,-5.998 0.045,-8.997c-0.024,-0.72 -0.131,-4.005 -0.076,-9.004c0.019,-1.665 0.038,-3.33 0.056,-4.995c0.002,-1.36 0.012,-9.787 -0.021,-17.003l0.027,-0.997c-0.033,-1.484 -0.018,-1.466 0.008,-11.011c-0.023,-7.46 0.028,-19.315 0.036,-20.995c-0.013,-2.001 -0.026,-4.001 -0.039,-6.002l0.023,-2.998c-0.152,-9.028 -0.045,-8.945 -0.055,-18.003l0.051,-4.996c0.004,-6.451 -0.027,-6.444 -0.014,-7.004l-0.043,-2.997c-0.102,-5.021 -0.082,-4.937 -0.029,-9.997c-0.07,-7.372 -0.091,-7.362 -0.091,-8.002c0.011,-11.836 -0.303,-13.063 2.35,-13.08c27.632,-0.18 27.745,-0.73 29.952,0.203c0.992,0.419 2.56,4.61 2.72,5.039c15.311,40.921 15.373,41.136 16.425,44.806c0.3,0.677 0.6,1.355 0.9,2.033c9.003,23.673 9.397,23.5 12.293,33.876c0.41,1.471 2.507,3.331 2.149,0.338c-1.039,-8.702 -0.484,-81.292 -0.447,-82.216Z" style="fill:#fe7100;fill-opacity:0.99;"/><path id="path5-2" d="M500.263,174.932c20.245,-1.438 49.443,1.338 51.193,45.965c0.019,0.484 0.227,5.783 -1.213,5.932c-2.07,0.215 -2.041,-1.112 -26.011,-0.361c-0.232,0.008 -0.209,-0.047 -2.826,-0.646c-1.015,-6.991 2.004,-29.408 -19.987,-22.616c-0.748,0.537 -1.496,1.073 -2.243,1.61c-4.546,5.426 -3.313,12.073 -3.116,13.135c6.33,20.696 19.364,17.309 44.862,44.262c13.6,14.377 21.216,46.229 2.385,65.736c-10.403,10.777 -23.597,11.156 -28.057,11.878c-0.719,0.026 -0.629,-0.015 -8.986,0.028c-3.579,-0.152 -3.534,-0.082 -7.027,-0.78c-1.309,-0.124 -2.619,-0.248 -3.928,-0.372c-1.287,-0.428 -2.574,-0.856 -3.86,-1.284c-16.565,-5.404 -18.299,-9.441 -24.743,-20.7c-2.949,-8.515 -4.682,-10.622 -4.755,-28.824c-0.021,-5.169 3.095,-1.662 8.355,-2.8c0.42,-0.091 23.089,-0.403 23.761,0.075c0.727,0.517 -3.405,29.721 16.131,27.248c4.7,-0.594 12.494,-2.806 11.682,-16.492c-0.876,-14.778 -18.371,-23.62 -38.23,-39.48c-0.346,-0.312 -0.692,-0.625 -1.039,-0.937c-20.771,-16.957 -20.286,-33.97 -20.208,-40.606c1.051,-34.643 29.934,-38.911 37.86,-39.971Z" style="fill:#006be6;fill-opacity:0.99;"/><path id="path6-4" d="M1279.482,204.787c-0.881,-9.086 -0.145,-21.058 -0.033,-22.885c0.058,-0.939 -0.904,-4.8 1.805,-5.035c1.237,-0.107 86.585,-0.027 87.008,0.021c2.822,0.316 1.957,3.836 2.128,22.014c0.018,1.869 0.591,7.01 -1.11,7.069c-3.747,0.131 -27.316,-0.305 -27.605,0.189c-0.49,0.839 0.674,130.627 -0.57,131.555c-0.62,0.463 -22.808,0.542 -28.846,0.149c-3.16,0.225 -4.288,0.426 -4.27,-1.944c0.121,-15.928 0.188,-15.882 0.092,-22.011c0.155,-3.513 -0.077,-3.455 0.117,-7.007c-0.026,-6.08 0.042,-6.07 -0.077,-76c0.284,-23.62 1.072,-24.386 -0.786,-25.164c-1.418,-0.594 -1.417,-0.169 -3.056,0.027c-4.062,0.22 -4.006,0.218 -8.023,0.021c-5.638,0.38 -15.392,0.267 -15.902,-0.05c-0.365,-0.227 -0.507,-0.722 -0.872,-0.949Z" style="fill:#fe7200;fill-opacity:0.99;"/><path id="path7-5" d="M556.526,204.651c-0.099,-2.131 -1.147,-24.496 -0.091,-26.658c0.663,-1.356 1.23,-1.105 60.825,-1.112c25.954,-0.003 27.258,-0.407 27.325,1.985c0.056,2.008 0.49,17.522 -0.063,25.107c-0.107,1.467 -2.836,1.32 -9.316,1.495c-4.526,-0.082 -4.447,-0.123 -8.988,-0.063c-4.67,-0.06 -6.48,0.051 -7.042,0.085c-1.923,0.118 -1.533,0.775 -1.974,1.405c0.075,1.005 0.15,2.01 0.225,3.015c0.17,42.637 -0.083,96.834 0.083,126.004c-1.2,1.868 -1.106,1.897 -1.24,2.032c-9.671,-0.032 -9.761,-0.047 -25.01,-0.019c-4.425,0.009 -6.577,1.408 -6.393,-3.028c0.046,-1.102 -0.005,-99.584 0.009,-122.995c0.003,-4.693 1.06,-6.693 -3.618,-6.661c-19.446,0.134 -19.378,0.07 -21.058,0.196c-1.91,-0.172 -1.875,-0.034 -3.674,-0.788Z" style="fill:#006be6;fill-opacity:0.99;"/><path id="path8-5" d="M735.264,337.74c-2.238,0.11 -3.508,0.173 -28.008,0.233c-2.764,0.007 -2.136,-1.517 -2.133,-19.07c0.023,-140.671 -0.424,-140.953 0.414,-141.707c1.469,-1.324 1.802,-0.342 24.723,-0.322c1.084,0.001 8.868,-0.884 8.965,2.034c0.338,10.228 -0.206,131.219 0.317,131.738c0.732,0.728 40.863,-0.323 41.255,0.668c0.258,0.653 -0.399,16.607 0.087,24.615c0.116,1.923 -1.05,1.932 -6.624,1.961c-3.617,-0.047 -10.15,0.134 -14.994,-0.189c-1.002,0.068 -2.004,0.136 -3.006,0.204c-4.384,0.018 -15.122,0.145 -20.996,-0.165Z" style="fill:#006ae5;fill-opacity:0.99;"/><path id="path9-1" d="M687.249,337.74c-7.15,0.454 -29.635,0.1 -29.955,0.034c-1.536,-0.319 -1.313,-1.074 -1.327,-33.87c-0.053,-126.114 0.019,-126.291 0.548,-126.707c0.638,-0.502 31.996,-0.501 32.526,-0.041c0.548,0.475 0.381,6.206 0.365,6.746c-0.118,4.007 0.027,3.947 0.039,8c0.203,69.551 -0.157,69.491 -0.023,139.001c0.008,4.137 1.73,5.485 -2.173,6.837Z" style="fill:#006ae6;fill-opacity:0.99;"/></g></g><g id="g3"><g id="Background"><path id="path1" d="M267.303,62.36c2.881,-3.633 2.943,-3.502 5.977,-7.031c30.601,-35.603 31.043,-35.182 33.439,-38.483c14.441,-19.898 21.825,-17.318 40.367,-15.883c6.269,0.485 13.653,5.912 15.671,8.441c25.506,31.973 26.214,31.272 51.956,63.062c0.312,0.332 0.624,0.664 0.937,0.996c1.188,1.303 0.817,1.605 14.191,16.877c1.694,1.933 10.919,12.467 4.998,31.74c-0.732,2.382 -1.976,6.43 -20.195,23.727c-0.718,0.632 -2.456,2.161 -8.453,8.471c-16.603,17.472 -16.755,17.219 -33.737,34.259c-37.206,37.335 -36.731,38.345 -44.347,40.763c-2.488,0.654 -2.418,0.526 -5.044,0.82l-1.001,0.059c-0.991,-0.061 -1.983,-0.123 -2.975,-0.185c-2.687,-0.335 -2.87,-0.048 -10.001,7.17c-17.73,17.948 -35.157,35.269 -35.422,35.561c-21.956,24.183 -18.072,29.656 -33.568,33.545c-9.78,2.454 -16.567,6.94 -18.147,7.385c-6.796,1.916 -17.685,-9.279 -15.326,-20.589c0.217,-0.959 0.433,-1.918 0.65,-2.878c0.581,-8.653 -4.462,1.962 -22.21,3.935c-3.596,-0.228 -5.164,-0.941 -5.949,-1.115c-2.256,-0.986 -2.254,-0.842 -3.239,-1.591c-13.584,-10.334 -7.92,-16.892 -3.721,-32.252c0.578,-2.002 0.683,-1.863 1.146,-3.969c1.193,-5.434 -5.901,-1.275 -8.358,-0.382l-0.886,0.303c-5.052,1.208 -5.12,1.944 -10.081,0.252l-1.628,-0.72c-1.795,-0.839 -1.796,-0.811 -1.938,-0.907c-0.344,-0.229 -0.014,-0.428 -0.319,-0.632c-2.644,-2.901 -2.583,-2.872 -2.816,-3.114c-7.34,-9.043 -0.704,-10.003 4.699,-28.877c0.54,-1.438 0.581,-1.347 0.49,-2.816c2.933,-8.43 5.302,-11.068 6.013,-11.859c1.027,-0.973 0.971,-0.918 1.936,-1.934c6.935,-8.274 47.542,-53.677 51.699,-58.325l0.433,-0.564c2.742,-2.94 2.688,-2.901 2.926,-3.149c0.97,-0.998 0.92,-0.944 1.899,-2.002c0.93,-1.082 0.854,-0.997 0.93,-1.082c3.275,-3.674 3.21,-3.631 6.404,-7.34c-0.065,-1.534 -0.162,-1.468 -0.699,-2.888c-2.421,-9.61 -4.709,-11.561 11.373,-29.77c15.58,-17.639 29.905,-34.943 30.986,-36c0.314,-0.343 0.627,-0.686 0.94,-1.029Z" style="fill:#032d74;fill-opacity:0.99;"/><path id="path2" d="M168.898,60.143c-0.012,-1.932 -0.098,-16.386 1.938,-24.067c0.262,-0.988 0.608,-2.297 12.243,-3.651c18.18,-2.117 30.353,-0.541 32.969,-0.202c3.047,0.394 3.323,6.349 3.431,6.831c0.341,1.529 3.468,15.528 4.846,18.979c1.334,3.341 28.321,4.88 28.3,7.154c-0.011,1.29 -17.89,20.953 -18.126,21.282c-3.992,5.587 -5.168,3.689 -8.431,3.909c-4.543,0.306 -4.489,-0.115 -8.997,0.048c-86.867,3.134 -113.52,47.158 -124.43,56.347c-0.617,0.705 -1.234,1.41 -1.851,2.116c-16.752,21.861 -18.656,30.208 -21.718,35.255l-0.431,0.792c-10.836,24.579 -14.558,44.124 -14.531,69.204c0.039,35.71 11.358,58.665 11.671,59.195c0.232,0.885 0.463,1.77 0.694,2.655c1.17,2.734 8.785,20.518 18.452,32.263c10.194,12.385 18.605,24.038 43.956,39.283c37.293,22.428 75.564,21.763 81.19,21.975c1.328,-0.055 2.655,-0.109 3.983,-0.164c50.94,-1.251 85.494,-27.651 97.68,-39.549c55.03,-53.728 49.011,-109.225 47.187,-137.644c-0.158,-1.034 -0.316,-2.068 -0.473,-3.102c-0.566,-2.943 -2.687,-11.579 -1.529,-13.999c0.429,-0.897 22.143,-22.383 23.034,-23.19c1.883,1.215 1.894,1.166 2.037,1.296c0.373,2.674 0.34,2.664 0.403,2.888c0.381,1.355 4.161,14.802 5.058,16.846c0.669,1.524 17.848,2.49 20.605,2.495c4.013,0.008 4.777,2.386 6.1,11.739c0.996,5.796 4.213,17.194 3.098,45.024c-0.145,3.621 -1.59,2.687 -5.123,3.377c-21.601,4.216 -22.011,4.653 -22.369,6.482c-3.188,16.284 -2.383,16.392 -7.387,32.214c-0.539,1.705 -0.856,2.709 16.779,14.769c3.347,2.288 2.815,3.314 -1.36,12.019c-1.437,2.996 -14.218,29.644 -21.017,35.82c-2.773,2.518 -15.434,-4.672 -25.769,-7.476c-2.368,-0.642 -3.878,2.821 -5.804,4.913c-2.872,3.119 -2.829,3.011 -5.78,6.194c-7.278,7.847 -7.504,7.467 -15.2,14.835c-3.791,3.63 8.138,23.276 6.989,26.898c-0.682,2.149 -27.254,17.385 -30.266,18.703c-17.575,7.692 -19.26,9.674 -23.565,4.824c-1.388,-1.643 -1.405,-1.489 -2.958,-2.889c-2.482,-1.867 -6.303,-6.165 -8.641,-8.367c-5.979,-5.633 -5.967,-8.088 -13.81,-5.617c-23.57,7.425 -33.401,4.879 -39.847,6.6c-2.345,0.626 -6.555,15.752 -9.45,20.424c-2.711,4.376 -36.736,-2.6 -37.593,-2.822c-1.993,-0.517 -18.773,-4.868 -24.928,-6.376c-4.332,-1.061 -3.971,-2.029 -4.107,-6.535c-1.622,-9.508 -1.459,-17.957 -1.462,-17.987c-0.575,-7.854 -5.571,-7.181 -7.414,-8.231c-8.621,-4.914 -8.602,-4.925 -9.354,-5.345l-1.479,-0.867c-6.989,-4.161 -9.745,-6.577 -10.513,-7.251c-5.592,-4.903 -8.982,0.623 -14.111,4.345c-11.239,8.154 -13.214,8.105 -14.545,8.072c-0.477,-0.408 -19.549,-16.154 -32.686,-33.189c-0.42,-0.551 -0.84,-1.103 -1.261,-1.654c-2.021,-2.538 -1.872,-2.53 -3.74,-5.154c-1.007,-1.415 -1.343,-2.37 12.76,-17.57c5.232,-5.64 -6.859,-14.612 -13.035,-36.232c-1.56,-2.819 -1.945,-2.822 -5.117,-2.299c-1.524,0.024 -8.964,0.138 -19.031,1.022c-5.301,0.466 -4.666,-3.87 -9.949,-20.674c-6.666,-30.657 -5.396,-38.938 -3.99,-38.766c1.024,0.125 0.972,-0.003 19.853,-3.68c4.776,-0.93 6.475,0.226 7.02,-4.538c-0.057,-2.97 -0.341,-17.99 3.126,-36.992c0.639,-3.503 1.405,-4.571 -4.954,-8.217c-2.084,-1.464 -1.974,-1.506 -4.177,-2.691c-7.809,-5.229 -13.327,-7.545 -14.561,-10.21l0.264,-0.932c4.086,-17.296 5.614,-21.357 12.634,-35.843c2.041,-4.031 2.091,-3.916 3.995,-7.98c1.954,-3.636 1.752,-3.65 1.934,-3.951c2.433,-4.025 21.382,3.176 29.811,2.967c0.544,-0.014 1.326,0.735 8.582,-9.468c11.229,-15.792 12.323,-14.875 15.141,-18.877c0.614,-0.873 0.958,-1.361 -3.705,-12.817c-0.512,-1.257 -5.231,-12.852 -5.698,-15.989c-0.426,-2.862 19.997,-18.337 21.877,-19.762c0.368,-0.259 0.735,-0.519 1.102,-0.778c1.529,-1.242 17.541,-12.968 20.664,-13.167c1.449,-0.092 18.795,22.885 21.925,21.445c2.278,-1.048 20.878,-9.601 29.153,-11.526c3.669,-0.853 3.593,-1.512 3.789,-5.212Z" style="fill:#006ce7;fill-opacity:0.99;"/><path id="path3" d="M354.06,41.155c20.228,7.454 27.429,9.806 38.378,30.787c12.111,23.211 8.092,27.198 3.569,32.145c-5.888,6.441 -85.844,88.824 -86.018,88.966c-5.645,4.608 -20.839,-2.944 -23.723,-5.179c-19.698,-15.264 -21.021,-26.354 -23.437,-32.664c0.248,-0.51 -0.465,-0.451 -0.215,-0.963c0.393,-0.808 0.899,-0.249 1.222,-1.107c0.235,-0.624 -0.11,-1.335 -0.053,-2c0.79,-9.291 2.061,-8.955 8.252,-16.024c47.273,-53.981 47.536,-53.629 51.529,-58.413c15.588,-18.673 28.221,-30.004 30.496,-35.548Z" style="fill:#fd7d0b;fill-opacity:0.99;"/><path id="path4" d="M120.178,260.62l0.931,-0.169c6.644,-1.099 6.618,-0.412 9.927,-0.149l0.959,0.153c30.826,4.89 21.519,16.391 23.325,22.604c2.415,8.311 7.505,13.397 8.447,14.338c6.229,6.223 6.47,5.834 14.07,10.2c0.359,0.251 0.718,0.503 1.078,0.754c4.776,3.082 4.468,-3.218 10.15,-2.536c13.948,1.674 21.539,31.795 18.95,39.31c-4.671,13.556 -9.966,13.546 -22.969,13.662c-2.031,-0.42 -4.062,-0.84 -6.093,-1.259l-1.892,-0.382c-7.368,-2.26 -11.347,-4.886 -17.334,1.762c-1.441,1.6 -0.372,1.757 -0.02,2.482l0.409,0.705c4.332,5.577 2.266,8.602 -3.834,11.494c-0.297,0.14 -0.296,0.07 -3.99,0.956c-2.123,0.166 -2.051,0.389 -4.229,0.331c-4.585,-0.121 -6.046,1.1 -10.034,0.855c-3.046,-0.188 -2.973,-0.227 -5.966,-0.514l-1.133,1.11c-7.453,-6.064 -22.309,-17.745 -31.831,-27.234c-1.273,-1.269 -1.529,-0.955 -2.44,-2.56c4.058,-4.992 3.764,-5.095 7.254,-10.6c2.848,-3.539 -6.331,-16.696 9.299,-20.302c9.951,-2.296 4.058,-6.53 -1.747,-19.675c-0.846,-1.895 -0.711,-1.878 -1.571,-3.755c-8.839,-24.795 -0.678,-28.309 10.284,-31.581Z" style="fill:#012e73;fill-opacity:0.98;"/><path id="path5" d="M356.31,16.93c7.216,7.734 12.394,14.395 18.169,21.883c14.79,19.18 15.953,18.08 31.013,36.978c11.675,14.65 21.603,21.673 21.742,31.342c0.224,15.553 -5.395,17.981 -13.713,26.459c-75.243,76.694 -74.8,77.001 -81.54,83.458c-9.308,8.917 -19.147,0.754 -20.247,-4.835c-2.252,-11.437 0.59,-12.121 14.942,-26.509c0.348,0.627 1.258,0.806 1.605,1.434c0.454,0.82 -4.232,4.644 -13.246,13.968c-1.629,1.686 -2.593,8.484 0.905,13.271c6.286,8.6 16.003,-4.897 16.676,-5.659c1.701,-1.928 53.299,-54.425 62.302,-63.725c23.961,-24.752 33.603,-30.945 26.635,-41.945c-2.093,-1.807 -1.864,-2.056 -6.721,-4.433c-10.4,-5.091 -5.668,-9.748 -18.375,-28.735c-7.974,-11.914 -8.334,-11.6 -19.152,-21c-9.816,-8.528 -10.125,-8.036 -20.962,-15.152c-5.578,-3.663 -3.432,-11.436 -6.218,-13.366l-0.614,-0.015c-0.458,-0.094 -0.684,-0.722 -1.142,-0.815c-0.41,-0.084 -3.919,5.627 -4.254,6.625c-1.125,3.353 -2.966,8.84 -27.156,34.883c-19.535,21.03 -18.471,21.907 -38.193,42.827c-22.368,23.726 -20.804,25.884 -28.841,28.89c-2.627,0.983 -9.486,-2.223 -10.924,-4.575c-4.367,-7.143 0.638,-8.8 19.621,-31.419c3.47,-4.134 33.745,-40.207 43.765,-51.351c23.144,-25.741 22.078,-26.762 24.621,-28.362c11.507,-7.24 20.966,4.01 29.302,-0.122Z" style="fill:#fc7b08;fill-opacity:0.99;"/><path id="path6" d="M218.061,99.621c2.125,0.444 3.214,0.696 1.854,2.417c-0.806,1.081 -7.035,9.425 -11.943,11.897c-4.041,2.036 -65.8,0.975 -109.671,67.369c-2.388,3.837 -16.488,26.496 -19.798,52.907c-5.245,41.843 4.048,64.329 10.746,79.816c0.549,1.289 3.24,7.612 8.569,15.278c4.009,5.766 3.722,6.494 6.095,6.628c-3.49,5.505 -3.196,5.608 -7.254,10.6c-1.93,-2.107 -1.79,-2.127 -3.572,-4.412c-0.581,-0.728 -1.163,-1.456 -1.744,-2.184c-13.982,-15.117 -27.145,-52.14 -27.329,-71.794l-0.185,-1.991c-0.186,-6.741 -2.447,-18.426 3.165,-47.017l0.565,-1.88c10.1,-37.822 24.11,-58.914 52.731,-83.906c0.376,-0.245 0.752,-0.49 1.128,-0.734c31.136,-26.554 67.266,-30.262 73.621,-30.914c11.453,-1.69 11.414,-1.481 23.022,-2.08Z" style="fill:#006be6;fill-opacity:0.99;"/><path id="path7" d="M152.292,374.545c0.12,1.373 0.585,1.255 7.706,3.805c10.442,3.739 10.506,3.315 21.144,6.478c0.225,0.066 15.865,2.838 27.923,2.324c2.062,-0.093 1.951,-0.091 4.007,-0.074c36.692,0.114 83.005,-20.877 107.531,-65.193c27.557,-49.794 14.149,-81.801 17.638,-85.603c1.171,-1.275 5.876,-5.321 7.74,-9.228c1.819,-3.813 2.956,4.627 3.019,5.096c9.864,73.246 -29.383,141.74 -100.819,162.395c-21.565,6.236 -22.028,3.527 -34.119,5.589c-1.001,0.011 -2.002,0.022 -3.004,0.033c-10.574,-0.373 -29.836,-0.635 -51.923,-9.234c-1.457,-0.734 -1.347,-0.711 -2.866,-1.227c-9.323,-3.237 -24.423,-12.83 -25.339,-13.379l1.133,-1.11c2.993,0.287 2.92,0.326 5.966,0.514c3.988,0.245 5.449,-0.976 10.034,-0.855c2.178,0.058 2.106,-0.165 4.229,-0.331Z" style="fill:#006ae5;fill-opacity:0.98;"/><path id="path8" d="M255.226,167.004c27.5,30.538 27.861,30.193 30.18,32.911c19.235,20.185 19.637,19.761 21.252,21.566c1.925,2.149 -0.125,2.506 -25.64,28.614c-4.048,4.143 -4.852,1.822 -7.391,-0.578c-15.449,-14.808 -15.133,-15.077 -50.914,-50.976c13.438,-12.3 26.277,-27.056 32.513,-31.537Z" style="fill:#e96808;fill-opacity:0.99;"/><path id="path9" d="M421.553,103.05c6.968,11 -2.674,17.193 -26.635,41.945c-9.003,9.3 -60.601,61.797 -62.302,63.725c-0.673,0.762 -10.39,14.259 -16.676,5.659c-3.498,-4.787 -2.534,-11.585 -0.905,-13.271c9.014,-9.324 13.7,-13.148 13.246,-13.968c-0.347,-0.628 -1.257,-0.807 -1.605,-1.434c4.27,-4.446 11.579,-12.056 53.696,-55.258c27.264,-27.967 27.402,-28.957 30.702,-28.405c7.017,1.173 7.337,3.55 10.479,1.007Z" style="fill:#c24000;fill-opacity:0.99;"/><path id="path10" d="M356.31,16.93c-8.336,4.132 -17.795,-7.118 -29.302,0.122c-2.543,1.6 -1.477,2.621 -24.621,28.362c-10.02,11.144 -40.295,47.217 -43.765,51.351c-18.983,22.619 -23.988,24.276 -19.621,31.419c1.438,2.352 8.297,5.558 10.924,4.575c8.037,-3.006 6.473,-5.164 28.841,-28.89c19.722,-20.92 18.658,-21.797 38.193,-42.827c24.19,-26.043 26.031,-31.53 27.156,-34.883c0.335,-0.998 3.844,-6.709 4.254,-6.625c0.458,0.093 0.684,0.721 1.142,0.815l-0.173,0.853c-0.881,12.257 -2.392,12.22 -28.152,41.049c-58.217,65.152 -57.964,65.315 -63.209,70.805c-10.051,10.519 -34.549,-5.917 -22.486,-18.5c4.512,-4.706 6.915,-7.212 53.439,-61.532c35.965,-41.993 36.39,-43.663 45.136,-43.732c15.108,-0.12 20.97,6.253 22.244,7.638Z" style="fill:#fbc245;fill-opacity:0.99;"/><path id="path11" d="M351.638,131.115c-3.641,24.858 -39.249,17.341 -30.719,-4.034c4.602,-11.531 10.585,-6.813 16.619,-17.677c14.817,-26.679 38.918,-4.823 23.534,11.744c-0.321,0.346 -2.698,3.024 -5.099,3.681c-4.225,1.155 -4.171,1.889 -4.335,6.286Z" style="fill:#042a75;fill-opacity:0.99;"/><path id="path12" d="M239.506,149.712c4.759,5.256 14.461,15.909 15.72,17.292c-6.236,4.481 -19.075,19.237 -32.513,31.537c-7.058,-7.022 -7.004,-6.993 -14.016,-14.06c9.419,-12.129 10.682,-10.926 30.809,-34.769Z" style="fill:#fdbf49;"/><path id="path13" d="M223.29,210.964c4.149,3.843 4.057,3.819 7.983,7.985c15.584,15.55 20.4,18.14 17.602,21.004c-1.801,1.844 -21.862,22.384 -23.739,21.795c-1.34,-0.421 -5.819,-5.503 -5.256,-8.641c1.947,-10.859 17.829,-29.123 2.133,-25.133c-2.915,0.741 -22.786,9.723 -24.749,10.61c0.236,-0.5 -0.437,-1.146 -0.201,-1.645c0.163,-0.346 0.989,0.598 3.703,-3.023c7.451,-9.944 9.866,-10.253 22.524,-22.952Z" style="fill:#d75002;"/><path id="path14" d="M128.081,277.553c10.904,-1.633 12.551,1.346 15.934,1.742c0.969,0.113 0.783,0.383 1.725,0.845c-1.849,2.252 2.079,10.62 1.494,11.247c-1.764,1.89 -10.087,-3.427 -16.054,-1.822c-2.762,0.742 -0.43,2.436 -0.117,2.953c2.941,-0.759 3.252,-1.393 3.656,-0.44c1.613,3.808 -0.23,6.316 12.505,10.72c-0.512,0.879 -1.01,0.296 -1.511,1.156c-0.086,0.147 0.004,0.158 0.062,2.125c1.253,7.764 16.282,1.341 14.526,7.025c-1.576,5.104 3.409,15.369 4.005,16.598c-0.548,0.479 -1.096,0.959 -1.644,1.438l-0.599,1.395l1,0.112c0.365,0.395 0.377,0.265 5.02,4.462c-0.467,0.026 -0.532,0.96 -1,0.987c-4.443,0.248 -13.263,-9.73 -14.208,-10.8c-9.552,-10.806 -17.256,-12.957 -27.905,-37.12c0.128,-0.535 1.156,-0.501 1.285,-1.036c0.157,-0.653 -0.475,-1.268 -0.573,-1.932c-0.06,-0.404 -0.468,-3.172 -0.137,-5.101c0.484,-2.817 0.018,-2.765 0.143,-2.967c0.276,-0.446 1.099,-0.319 1.375,-0.765l1.018,-0.822Z" style="fill:#9cb4d1;fill-opacity:0.99;"/><path id="path15" d="M120.229,271.517c4.996,-1.217 6.512,-1.792 15.902,0.3c8.458,1.885 9.824,1.673 11.522,9.401c-0.637,-0.359 -1.275,-0.719 -1.913,-1.078c-0.942,-0.462 -0.756,-0.732 -1.725,-0.845c-3.383,-0.396 -5.03,-3.375 -15.934,-1.742c-4.61,-0.105 -7.032,-2 -6.766,2.579c0.319,5.496 1.175,5.216 3.655,10.044c10.649,24.163 18.353,26.314 27.905,37.12c0.945,1.07 9.765,11.048 14.208,10.8c0.468,-0.027 0.533,-0.961 1,-0.987c5.598,1.807 8.453,2.865 9.416,5.773c0.389,1.177 8.159,2.326 10.573,2.171c0.725,-0.047 1.443,-0.391 2.161,-0.283c0.365,0.055 0.477,0.839 0.83,0.732c0.178,-0.055 -0.066,-0.339 1.795,-1.483c1.445,-0.887 1.474,-2.743 1.55,-2.865c0.258,-0.413 0.993,-0.53 1.052,-1.014c0.039,-0.318 -0.685,-0.131 -0.787,-3.922c-0.116,-4.253 -2.706,-10.544 -2.61,-13.351l1.112,-0.782c0.653,1.332 4.899,9.989 4.125,18.079c-2.367,24.726 -72.862,-14.359 -81.77,-59.047c0.41,-5.757 -0.077,-6.402 4.699,-9.6Z" style="fill:#cdddec;fill-opacity:0.99;"/><path id="path16" d="M354.06,41.155c-2.275,5.544 -14.908,16.875 -30.496,35.548c-3.993,4.784 -4.256,4.432 -51.529,58.413c-6.191,7.069 -7.462,6.733 -8.252,16.024c-0.057,0.665 0.288,1.376 0.053,2c-0.323,0.858 -0.829,0.299 -1.222,1.107c-0.25,0.512 0.463,0.453 0.215,0.963c-1.061,-4.209 -2.672,-8.667 -2.154,-14.139c0.312,-3.285 47.411,-54.219 60.215,-69.081c26.844,-31.158 29.552,-31.02 33.17,-30.835Z" style="fill:#fbc140;fill-opacity:0.99;"/><path id="path17" d="M239.506,149.712c-20.127,23.843 -21.39,22.64 -30.809,34.769c-7.655,-7.903 -7.928,-7.648 -8.445,-8.452c-0.93,-1.446 0.23,-1.496 14.698,-16.992c14.252,-15.266 13.888,-15.555 15.137,-16.869c1.569,-1.652 4.696,2.572 9.419,7.544Z" style="fill:#fd7d07;"/><path id="path18" d="M317.971,119.053c-8.784,9.021 -9.117,8.967 -9.782,8.708c-0.605,-0.235 -7.999,-3.113 -5.954,-5.504c7.128,-8.333 28.285,-26.671 26.829,-30.117c-0.207,-0.49 -9.336,-8.639 -4.011,-9.117c1.894,-0.17 5.376,3.115 10.003,2.901c0.85,-0.039 13.322,-0.613 10.107,3.289c-11.275,13.69 -11.828,13.096 -27.192,29.84Z" style="fill:#052a74;fill-opacity:0.99;"/><path id="path19" d="M152.035,305.534c3.725,0.849 3.607,1.01 7.087,2.436c2.421,0.993 2.145,-0.38 3.188,-1.182c3.049,3.105 1.385,3.634 0.552,6.296c-0.345,1.102 -1.294,4.136 3.118,14.091c1.371,3.093 2.652,4.879 3.783,1.96c3.102,-0.921 3.334,-0.57 5.365,1.937c3.017,3.726 8.231,2.611 10.182,-7.908c0.958,-0.77 0.904,-0.663 1.733,-1.492c0.411,0.035 3.04,0.254 5.02,1.195c-0.096,2.807 2.494,9.098 2.61,13.351c0.102,3.791 0.826,3.604 0.787,3.922c-0.059,0.484 -0.794,0.601 -1.052,1.014c-0.076,0.122 -0.105,1.978 -1.55,2.865c-1.861,1.144 -1.617,1.428 -1.795,1.483c-0.353,0.107 -0.465,-0.677 -0.83,-0.732c-0.718,-0.108 -1.436,0.236 -2.161,0.283c-2.414,0.155 -10.184,-0.994 -10.573,-2.171c-0.963,-2.908 -3.818,-3.966 -9.416,-5.773c-4.643,-4.197 -4.655,-4.067 -5.02,-4.462l-1,-0.112l0.599,-1.395c0.548,-0.479 1.096,-0.959 1.644,-1.438c-0.596,-1.229 -5.581,-11.494 -4.005,-16.598c1.756,-5.684 -13.273,0.739 -14.526,-7.025c0.176,-0.017 2.198,-0.219 2.198,-0.219c1.51,1.233 1.568,1.61 1.937,1.173c0.907,-1.076 0.899,-0.948 2.125,-1.499Z" style="fill:#93a9c7;fill-opacity:0.99;"/><path id="path20" d="M190.042,240.005l0.968,0.633c4.573,5.732 -9.701,23.15 -9.257,26.597c0.597,4.626 12.233,-12.936 13.087,-14.225c0.631,0.193 0.156,2.206 3.168,0.972c6.14,-2.515 6.54,-2.668 12.387,0.401c-1.146,1.335 -1.287,1.499 -16.715,14.286c-5.558,4.606 -5.484,4.552 -11.228,8.938c-13.131,10.026 -5.021,-9.497 -0.875,-21.62c4.151,-12.14 3.805,-14.207 8.465,-15.982Z" style="fill:#f67d09;fill-opacity:0.99;"/><path id="path21" d="M217.232,204.945l-1.124,1.195c-1.676,1.286 -8.778,8.758 -9.521,9.539c-0.752,0.791 -0.437,0.954 -0.524,0.962c-0.909,0.085 -0.531,-0.863 -1.454,-0.776c5.834,-10.915 2.399,-11.887 1.579,-11.458c-4.517,2.363 -19.876,33.992 -12.941,10.789c3.328,-11.131 7.375,-25.341 -6.129,-19.944c-0.107,0.043 -10.597,6.272 -7.709,2.079c0.45,-0.653 11.962,-12.76 13.01,-13.862c2.298,-2.417 2.616,0.223 21.401,17.934c0.286,0.27 0.252,0.263 3.412,3.542Z" style="fill:#fa8208;fill-opacity:0.99;"/><path id="path22" d="M219.623,301.157c1.379,-13.72 30.326,-37.717 32.418,-38.109c4.572,-0.858 -0.574,2.227 -9.892,26.134c-0.089,0.229 -3.503,5.879 -8.964,8.223c-10.286,4.414 -12.169,8.689 -13.562,3.752Z" style="fill:#fa800a;"/><path id="path23" d="M185.636,225.055c-2.909,8.242 -2.264,9.189 -14.47,17.242c-6.936,4.576 -23.399,7.733 -12.172,-1.241c13.223,-10.57 30.986,-32.904 29.374,-25.934c-0.185,0.803 -0.202,0.736 -2.732,9.933Z" style="fill:#f98109;fill-opacity:0.99;"/><path id="path24" d="M118.986,349.252c17.043,12.066 34.545,8.158 27.87,15.729c-4.489,5.092 -36.563,-8.132 -39.153,-17.735c-2.636,-9.774 7.464,-0.663 11.283,2.006Z" style="fill:#b6c9de;fill-opacity:0.99;"/><path id="path25" d="M217.232,204.945c3.194,2.95 3.163,2.835 6.058,6.019c-12.658,12.699 -15.073,13.008 -22.524,22.952c-2.714,3.621 -3.54,2.677 -3.703,3.023c-0.236,0.499 0.437,1.145 0.201,1.645c-1.08,0.46 -2.16,0.921 -3.24,1.381c-1.405,-0.753 -1.333,-0.736 -2.495,-1.79c1.13,-6.76 3.101,-5.823 8.133,-14.276c2.444,-4.105 2.393,-4.034 4.947,-8.034c0.923,-0.087 0.545,0.861 1.454,0.776c0.087,-0.008 -0.228,-0.171 0.524,-0.962c0.743,-0.781 7.845,-8.253 9.521,-9.539l1.124,-1.195Z" style="fill:#fbb543;fill-opacity:0.99;"/><path id="path26" d="M163.291,219.263c4.255,-6.273 4.5,-6.03 11.457,-10.611c1.098,-0.724 13.039,-8.587 14.248,-8.208c5.179,1.625 -16.948,20.909 -29.534,34.113c-9.13,9.578 -1.15,-4.634 3.829,-15.294Z" style="fill:#f88108;fill-opacity:0.99;"/><path id="path27" d="M265.078,253.122c-2.296,4.458 -4.529,6.549 -5.034,7.021c-6.023,-4.369 -9.657,-3.559 -23.36,7.559c-4.724,3.833 -6.122,-0.996 -3.436,-3.326c12.889,-11.183 11.118,-13.623 20.784,-17.329c5.568,-2.136 5.414,1.013 11.046,6.075Z" style="fill:#ca4903;fill-opacity:0.99;"/><path id="path28" d="M131.302,340.801l-1.239,1.296c-5.701,0.441 0.836,4.768 1.178,4.995c0.156,0.103 6.95,2.308 7.556,2.505c3.319,1.077 6.678,1.471 7.268,1.54c0.993,0.117 2.047,-0.305 2.999,-0.001c0.813,0.259 1.186,1.338 1.999,1.598l0.918,1.049c-17.701,0.961 -39.629,-11.053 -41.49,-23.671c-1.554,-10.539 8.872,4.178 20.811,10.689Z" style="fill:#d6e4ef;fill-opacity:0.99;"/><path id="path29" d="M133.432,325.81c4.254,4.01 12.744,10.323 13.293,10.779c18.413,15.264 -31.512,-4.691 -25.301,-15.253c3.808,-6.475 8.232,0.784 12.008,4.474Z" style="fill:#c1d3e5;fill-opacity:0.99;"/><path id="path30" d="M215.336,263.926c0.517,0.784 1.3,1.369 1.817,2.153c2.873,4.354 -30.793,21.284 -33.765,18.675c-1.803,-1.582 0.63,-1.592 22.483,-19.833l1.192,0.404l1,1.086c2.07,-0.148 1.989,-0.229 3.97,-0.69c3.486,-0.81 3.015,-1.61 3.303,-1.795Z" style="fill:#f37a09;fill-opacity:0.99;"/><path id="path31" d="M194.84,253.01c2.524,-4.749 1.745,-5.312 5.521,-8.509c2.38,-2.015 18.372,-8.328 18.622,-8.184c2.137,1.234 -7.728,16.716 -8.588,18.066c-5.847,-3.069 -6.247,-2.916 -12.387,-0.401c-3.012,1.234 -2.537,-0.779 -3.168,-0.972Z" style="fill:#d25104;fill-opacity:0.99;"/><path id="path32" d="M343.626,129.152c-2.266,16.822 -21.683,10.901 -14.213,-0.795c2.624,-4.11 11.4,-11.139 14.213,0.795Z" style="fill:#fa8207;fill-opacity:0.99;"/><path id="path33" d="M147.653,281.218c1.516,6.05 1.732,5.913 3.615,11.858c1.093,3.448 -9.857,0.583 -10.341,0.387c-9.537,-3.864 -0.08,5.983 10.128,7.724c6.392,1.09 6.214,1.569 11.255,5.601c-1.043,0.802 -0.767,2.175 -3.188,1.182c-3.48,-1.426 -3.362,-1.587 -7.087,-2.436c-0.471,-0.433 -0.5,-1.223 -0.971,-1.656c-0.235,-0.216 -0.318,0.174 -3.84,-1.08c-12.735,-4.404 -10.892,-6.912 -12.505,-10.72c-0.404,-0.953 -0.715,-0.319 -3.656,0.44c-0.313,-0.517 -2.645,-2.211 0.117,-2.953c5.967,-1.605 14.29,3.712 16.054,1.822c0.585,-0.627 -3.343,-8.995 -1.494,-11.247c0.638,0.359 1.276,0.719 1.913,1.078Z" style="fill:#adc4dc;fill-opacity:0.99;"/><path id="path34" d="M181.232,318.824c1.273,0.261 3.28,1.116 5.633,-0.899c3.774,-3.232 4.09,-0.344 6.31,4.16l-1.112,0.782c-1.98,-0.941 -4.609,-1.16 -5.02,-1.195c-0.671,0.208 -0.339,-0.772 -0.949,-0.584c-0.169,0.053 -0.056,0.15 -0.784,2.076c-1.951,10.519 -7.165,11.634 -10.182,7.908c-2.031,-2.507 -2.263,-2.858 -5.365,-1.937l-0.049,-1.934c1.988,-1.629 2.41,-1.503 2.352,-4.06c-0.072,-3.106 3.716,0.402 5.386,-2.616c0,0 2.402,-0.716 2.611,-0.778l1.169,-0.923Z" style="fill:#b8ccdf;fill-opacity:0.99;"/><path id="path35" d="M265.078,253.122c0.247,0.231 2.67,2.494 3.115,2.861c5.594,4.61 1.016,5.733 -1.689,8.583c-6.955,7.326 -11.746,17.285 -13.438,17.261c-3.934,-0.056 5.487,-11.638 6.978,-21.684c0.505,-0.472 2.738,-2.563 5.034,-7.021Z" style="fill:#f67f07;fill-opacity:0.99;"/><path id="path36" d="M344.587,114.15c0.138,-1.046 1.379,-10.48 9.498,-9.15c12.148,1.989 -6.634,23.394 -9.498,9.15Z" style="fill:#fb8305;fill-opacity:0.99;"/><path id="path37" d="M131.302,340.801c18.903,9.219 23.85,7.665 25.429,9.649c0.29,0.363 0.588,1.099 -4.75,3.333l-0.918,-1.049c-0.813,-0.26 -1.186,-1.339 -1.999,-1.598c-0.952,-0.304 -2.006,0.118 -2.999,0.001c-0.59,-0.069 -3.949,-0.463 -7.268,-1.54c-0.606,-0.197 -7.4,-2.402 -7.556,-2.505c-0.342,-0.227 -6.879,-4.554 -1.178,-4.995l1.239,-1.296Z" style="fill:#9ab2ce;fill-opacity:0.99;"/><path id="path38" d="M215.464,290.247c0.41,-1.052 3.875,-9.951 6.073,-12.74c4.834,-6.131 7.943,-2.288 6.468,-0.407c-8.182,10.431 -9.363,15.931 -11.249,17.732c-3.098,2.96 -1.38,-4.214 -1.292,-4.585Z" style="fill:#ed7005;"/><path id="path39" d="M181.232,318.824l-1.169,0.923c-0.209,0.062 -2.611,0.778 -2.611,0.778c-1.67,3.018 -5.458,-0.49 -5.386,2.616c0.058,2.557 -0.364,2.431 -2.352,4.06c-0.037,-0.566 -0.454,-7.066 -0.454,-7.066c-0.014,-9.823 6.064,-4.875 11.972,-1.311Z" style="fill:#d8e6f1;fill-opacity:0.99;"/><path id="path40" d="M128.081,277.553l-1.018,0.822c-0.276,0.446 -1.099,0.319 -1.375,0.765c-0.125,0.202 0.341,0.15 -0.143,2.967c-0.331,1.929 0.077,4.697 0.137,5.101c0.098,0.664 0.73,1.279 0.573,1.932c-0.129,0.535 -1.157,0.501 -1.285,1.036c-2.48,-4.828 -3.336,-4.548 -3.655,-10.044c-0.266,-4.579 2.156,-2.684 6.766,-2.579Z" style="fill:#adc3dc;fill-opacity:0.99;"/><path id="path41" d="M215.336,263.926c-0.288,0.185 0.183,0.985 -3.303,1.795c-1.981,0.461 -1.9,0.542 -3.97,0.69l-1,-1.086l-1.192,-0.404c4.5,-4.065 4.119,-6.01 7.154,-4.722c0.323,0.137 0.708,0.3 2.311,3.727Z" style="fill:#d45704;"/><path id="path42" d="M120.229,271.517c-4.776,3.198 -4.289,3.843 -4.699,9.6c-0.953,0.005 -1.141,1.939 -2.093,1.945c-0.131,0 -0.938,-5.837 0.828,-7.922l0.45,-1c0.169,-0.246 -0.456,-0.603 -0.287,-0.849c1.456,-2.123 3.284,-2.716 3.635,-2.83c2.345,-0.761 1.689,0.824 2.166,1.056Z" style="fill:#011b60;fill-opacity:0.99;"/><path id="path43" d="M246.102,145.096c-4.669,-4.28 4.206,-3.04 5.206,-2.363c0.788,0.534 2.286,6.698 -5.206,2.363Z" style="fill:#ecc367;fill-opacity:0.99;"/><path id="path44" d="M301.649,203.608c-0.349,-0.29 -4.362,-3.628 -4.362,-3.628c-6.003,-5.709 5.485,0.701 5.903,0.934c1.602,0.895 2.645,6.334 -1.541,2.694Z" style="fill:#e2700a;fill-opacity:0.99;"/><path id="path45" d="M252.494,149.572c2.323,0.087 1.19,1.385 3.768,7.53c2.021,4.818 -6.104,-1.089 -3.768,-7.53Z" style="fill:#da9213;fill-opacity:0.99;"/><path id="path46" d="M147.274,249.995c0.233,0.242 0.172,0.213 2.816,3.114c-1.552,0.733 -2.087,0.254 -2.312,1.705c-0.04,0.263 -0.432,2.796 -0.86,3.213c-2.723,2.653 -0.73,-3.358 -0.829,-3.903c-0.507,-2.779 0.386,-2.728 1.185,-4.129Z" style="fill:#022656;fill-opacity:0.04;"/><path id="path47" d="M147.224,302.798c3.522,1.254 3.605,0.864 3.84,1.08c0.471,0.433 0.5,1.223 0.971,1.656c-1.226,0.551 -1.218,0.423 -2.125,1.499c-0.369,0.437 -0.427,0.06 -1.937,-1.173c0,0 -2.022,0.202 -2.198,0.219c-0.058,-1.967 -0.148,-1.978 -0.062,-2.125c0.501,-0.86 0.999,-0.277 1.511,-1.156Z" style="fill:#a7bfd7;fill-opacity:0.99;"/><path id="path48" d="M179.114,293.007c0.785,0.174 2.353,0.887 5.949,1.115c-1.303,1.307 -3.046,4.101 -4.791,2.741c-1.774,-1.382 -1.082,-1.698 -1.158,-3.856Z" style="fill:#102b5d;fill-opacity:0.08;"/><path id="path49" d="M34.093,316.779c3.172,-0.523 3.557,-0.52 5.117,2.299c-0.129,0.279 0.395,0.605 0.266,0.884c-1.81,3.907 -2.342,-0.141 -5.383,-3.183Z" style="fill:#022085;fill-opacity:0.04;"/><path id="path50" d="M21.991,202.243c2.203,1.185 2.093,1.227 4.177,2.691l-1.105,0.471c-1.099,2.414 -1.002,2.447 -1.16,2.612c-1.972,2.062 -1.455,-2.464 -1.758,-2.948c-0.571,-0.915 -0.203,-0.952 -0.412,-1.929l0.258,-0.897Z" style="fill:#042875;fill-opacity:0.07;"/><path id="path51" d="M210.073,409.511c-0.089,-2.29 -0.258,-2.354 -0.096,-2.467c2.675,-1.868 3.618,1.149 4.079,2.303c-1.328,0.055 -2.655,0.109 -3.983,0.164Z" style="fill:#001977;fill-opacity:0.06;"/><path id="path52" d="M92.641,146.773c1.1,1.954 1.694,1.969 1.023,3.104c-1.579,2.669 -2.795,-0.861 -2.874,-0.988c0.617,-0.706 1.234,-1.411 1.851,-2.116Z" style="fill:#01177d;fill-opacity:0.05;"/><path id="path53" d="M160.412,204.509c-0.965,1.016 -0.909,0.961 -1.936,1.934c-2.666,-3.649 -0.677,-3.782 -0.373,-3.781c0.236,0.001 0.168,0.135 2.309,1.847Z" style="fill:#08198a;fill-opacity:0.05;"/><path id="path54" d="M152.347,254.648l1.628,0.72c-0.49,2.153 0.181,3.321 -1.96,2.908c-2.478,-0.478 -0.811,-1.463 0.332,-3.628Z" style="fill:#121e7d;fill-opacity:0.05;"/><path id="path55" d="M217.369,140.469c-0.979,1.058 -0.929,1.004 -1.899,2.002c-0.32,-0.578 -1.139,-0.761 -1.458,-1.338c-0.27,-0.487 1.084,-2.96 2.098,-2.318c0.585,0.37 0.673,1.283 1.259,1.654Z" style="fill:#1c257b;fill-opacity:0.05;"/><path id="path56" d="M164.056,255.116l0.886,-0.303c4.204,2.348 1.403,3.359 1.133,3.291c-1.128,-0.287 -0.827,-0.644 -2.019,-2.988Z" style="fill:#013585;fill-opacity:0.05;"/><path id="path57" d="M91.343,339.937c0.581,0.728 1.163,1.456 1.744,2.184c-5.068,5.292 -1.835,-1.979 -1.744,-2.184Z" style="fill:#00075f;fill-opacity:0.07;"/><path id="path58" d="M43.225,378.034c0.421,0.551 0.841,1.103 1.261,1.654c-3.171,4.822 -2.935,-0.328 -2.857,-0.548c0.215,-0.611 1.381,-0.495 1.596,-1.106Z" style="fill:#012898;fill-opacity:0.04;"/><path id="path59" d="M156.269,389.706c1.519,0.516 1.409,0.493 2.866,1.227c-0.218,0.193 -4.175,3.7 -3.631,-0.111c0.064,-0.446 0.701,-0.67 0.765,-1.116Z" style="fill:#002293;fill-opacity:0.08;"/><path id="path60" d="M93.367,68.603c-0.367,0.259 -0.734,0.519 -1.102,0.778c-0.973,-1.913 -1.546,-1.883 -0.832,-2.999c0.076,-0.119 1.059,-1.656 1.717,-0.41c0.411,0.778 -0.194,1.853 0.217,2.631Z" style="fill:#0211ae;fill-opacity:0.04;"/><path id="path61" d="M116.341,407.711l1.479,0.867c-2.983,2.026 -3.58,1.851 -3.909,1.755c-1.059,-0.31 -0.22,-1.297 2.43,-2.622Z" style="fill:#001572;fill-opacity:0.05;"/><path id="path62" d="M121.418,132.615c-0.376,0.244 -0.752,0.489 -1.128,0.734c-1.042,-2.455 -0.897,-2.769 -0.794,-2.994c1.401,-3.035 1.898,2.023 1.922,2.26Z" style="fill:#003cab;fill-opacity:0.05;"/><path id="path63" d="M177.837,307.597c1.944,-1.934 1.861,-2.115 2.095,-2.084c2.208,0.283 0.375,1.129 -1.017,2.838c-0.36,-0.251 -0.719,-0.503 -1.078,-0.754Z" style="fill:#060d7b;fill-opacity:0.06;"/><path id="path64" d="M414.713,72.466c0.141,-0.192 2.342,-3.175 2.57,-1.499c0.104,0.762 -0.114,1.095 -0.166,1.174c-0.551,0.841 -0.876,0.417 -1.467,1.321c-0.313,-0.332 -0.625,-0.664 -0.937,-0.996Z" style="fill:#043f46;fill-opacity:0.04;"/><path id="path65" d="M379.955,191.863c0.398,-1.35 0.323,-1.265 0.398,-1.35c1.767,-2.013 1.645,2.397 1.639,2.646c-0.143,-0.13 -0.154,-0.081 -2.037,-1.296Z" style="fill:#0c35ba;fill-opacity:0.18;"/><path id="path66" d="M131.036,260.302c-0.082,-2.391 -0.324,-2.531 0.175,-2.727c0.128,-0.051 1.501,-0.59 1.518,0.822c0.008,0.728 -0.742,1.33 -0.734,2.058l-0.959,-0.153Z" style="fill:#01136b;fill-opacity:0.04;"/><path id="path67" d="M191.529,238.175c1.162,1.054 1.09,1.037 2.495,1.79c-1.576,0.137 -1.486,0.146 -3.014,0.673l-0.968,-0.633c0.495,-0.61 0.991,-1.22 1.487,-1.83Z" style="fill:#794c41;fill-opacity:0.99;"/><path id="path68" d="M209.065,387.152c1.989,-0.831 2.042,-0.825 4.007,-0.074c-2.056,-0.017 -1.945,-0.019 -4.007,0.074Z" style="fill:#034cb6;fill-opacity:0.22;"/><path id="path69" d="M187.043,321.672c-0.829,0.829 -0.775,0.722 -1.733,1.492c0.728,-1.926 0.615,-2.023 0.784,-2.076c0.61,-0.188 0.278,0.792 0.949,0.584Z" style="fill:#9cb2cc;fill-opacity:0.99;"/><path id="path70" d="M211.058,400.167c1.002,-0.011 2.003,-0.022 3.004,-0.033c-1.526,0.519 -1.485,0.507 -3.004,0.033Z" style="fill:#004ab4;fill-opacity:0.3;"/><path id="path71" d="M319.087,229.993c0.992,0.062 1.984,0.124 2.975,0.185c-1.569,0.379 -1.512,0.295 -2.975,-0.185Z" style="fill:#17406e;fill-opacity:0.36;"/><path id="path72" d="M65.781,313.335c0.573,1.285 0.773,1.199 0.694,2.655c-0.231,-0.885 -0.462,-1.77 -0.694,-2.655Z" style="fill:#0432ad;fill-opacity:0.29;"/><path id="path73" d="M224.004,129.159c0.537,1.42 0.634,1.354 0.699,2.888c-0.644,-2.563 -0.655,-2.533 -0.699,-2.888Z" style="fill:#11436b;fill-opacity:0.37;"/><path id="path74" d="M207.273,290.187c-0.217,0.96 -0.433,1.919 -0.65,2.878c-0.082,-1.541 0.027,-1.455 0.65,-2.878Z" style="fill:#102984;fill-opacity:0.42;"/><path id="path75" d="M152.463,218.302c0.091,1.469 0.05,1.378 -0.49,2.816l0.49,-2.816Z" style="fill:#1a3c6c;fill-opacity:0.44;"/><path id="path76" d="M349.511,20.349l0.614,0.015l-0.787,0.838l0.173,-0.853Z" style="fill:#996949;fill-opacity:0.99;"/></g></g></svg>