<?xml version="1.0" encoding="UTF-8" standalone="no"?>
<svg
   width="1371.7872"
   height="414.36456"
   viewBox="0 0 1371.7872 414.36456"
   version="1.1"
   id="svg4"
   sodipodi:docname="logo.svg"
   inkscape:version="1.3.2 (091e20e, 2023-11-25, custom)"
   xmlns:inkscape="http://www.inkscape.org/namespaces/inkscape"
   xmlns:sodipodi="http://sodipodi.sourceforge.net/DTD/sodipodi-0.dtd"
   xmlns="http://www.w3.org/2000/svg"
   xmlns:svg="http://www.w3.org/2000/svg">
  <sodipodi:namedview
     id="namedview1"
     pagecolor="#ffffff"
     bordercolor="#000000"
     borderopacity="0.25"
     inkscape:showpageshadow="2"
     inkscape:pageopacity="0.0"
     inkscape:pagecheckerboard="0"
     inkscape:deskcolor="#d1d1d1"
     inkscape:zoom="0.88865974"
     inkscape:cx="809.08357"
     inkscape:cy="375.28424"
     inkscape:window-width="2400"
     inkscape:window-height="1321"
     inkscape:window-x="-9"
     inkscape:window-y="176"
     inkscape:window-maximized="1"
     inkscape:current-layer="g4" />
  <defs
     id="defs4">
    <clipPath
       clipPathUnits="userSpaceOnUse"
       id="clipPath6">
      <rect
         style="fill:#000000;fill-rule:evenodd;stroke-width:0.867016"
         id="rect7"
         width="1189.361"
         height="359.26056"
         x="109.83479"
         y="205.88135" />
    </clipPath>
  </defs>
  <g
     id="g4"
     clip-path="url(#clipPath6)"
     transform="matrix(1.1533817,0,0,1.1533817,-126.68144,-237.45978)">
    <path
       d="m 1239.41,458.95 c -7.9,2.44 -20.19,2.64 -28.41,0.46 -6.27,-1.67 -15.05,-7.29 -18.55,-11.88 -4.63,-6.08 -7.39,-13.8 -8.42,-23.6 -1.32,-12.51 -1.31,-71.23 0.01,-81.96 2.81,-22.75 17.65,-35.97 40.37,-35.97 20.46,0 34.3,10.06 39.23,28.5 1.98,7.4 1.92,90.81 -0.07,98.27 -3.44,12.94 -12.28,22.52 -24.16,26.18 z m -922.99,77.27 -2.99,10.28 -17.24,0.27 c -13.25,0.21 -17.34,-0.02 -17.7,-1 -0.26,-0.7 -1.72,-5.5 -3.23,-10.67 l -2.76,-9.4 -5,-1.45 c -2.75,-0.79 -5.2,-1.64 -5.45,-1.88 -0.24,-0.24 3.55,-4.44 8.42,-9.34 l 8.87,-8.91 13.08,0.08 c 16.2,0.1 26.02,-1.35 39.73,-5.87 l 10.66,-3.51 3.34,3.64 c 2.89,3.14 3.58,3.46 5.02,2.34 1.53,-1.19 1.35,-1.86 -2.08,-7.8 -2.09,-3.62 -4.38,-6.42 -5.17,-6.33 -0.78,0.1 -4.57,1.49 -8.42,3.1 -11.65,4.88 -19.04,6.43 -33.25,6.96 -7.29,0.28 -13.25,0.25 -13.25,-0.06 0,-0.31 2.14,-2.6 4.75,-5.09 3.99,-3.81 5.39,-4.54 8.75,-4.56 5.89,-0.03 18.17,-2.57 25.75,-5.32 15.58,-5.66 31.27,-17.4 43.17,-32.32 6.79,-8.5 22.86,-23.93 23.38,-22.44 0.6,1.73 -5.98,14.64 -12.27,24.09 -3.95,5.93 -9.69,12.74 -14.87,17.65 l -8.44,7.98 3.25,5.14 c 4.94,7.84 5.45,8.31 7.65,7.14 1.85,-0.99 1.82,-1.18 -0.69,-5.46 l -2.59,-4.43 6.26,-5.78 c 13.83,-12.76 25.61,-32.98 30.85,-52.96 0.95,-3.66 3.92,-6.86 23.14,-25 12.12,-11.45 22.64,-20.95 23.37,-21.11 1.03,-0.24 1.49,2.92 2.05,14.15 0.4,7.95 0.53,15.03 0.29,15.74 -0.23,0.71 -5.31,2.91 -11.29,4.91 l -10.87,3.62 -1.4,6.94 c -0.77,3.82 -2.21,9.25 -3.21,12.08 l -1.8,5.14 6.46,6.36 c 3.55,3.5 6.87,7.12 7.38,8.05 0.68,1.22 0.01,3.72 -2.41,9 -2.6,5.69 -10.52,19.76 -12.17,21.61 -0.15,0.17 -5.01,-0.94 -10.81,-2.46 l -10.55,-2.78 -2.16,2.75 c -2.11,2.68 -14.47,13.86 -20.47,18.52 -1.65,1.29 -2.25,2.1 -1.34,1.82 2.26,-0.7 5.5,2.82 3.66,3.98 -0.73,0.45 -6.72,4.09 -13.32,8.09 -10.7,6.48 -12.13,7.09 -13.21,5.63 -0.67,-0.9 -1.35,-2.04 -1.52,-2.54 -0.16,-0.49 -3.67,0.65 -7.78,2.55 -6.71,3.09 -17,6.53 -24.04,8.03 -2.26,0.49 -2.88,1.69 -5.53,10.83 z M 159.67,381.83 c -12.02,11.37 -22.26,20.82 -22.76,21 -0.52,0.19 -0.91,-6.09 -0.91,-14.72 v -15.05 l 10.46,-3.19 10.46,-3.19 1.11,-5.59 c 1.04,-5.3 3.43,-14.52 4.49,-17.3 0.27,-0.71 -2.65,-4.67 -6.49,-8.79 -3.84,-4.12 -6.99,-8.33 -7.01,-9.34 -0.05,-3.92 13.24,-27.65 15.48,-27.63 0.55,0 4.38,0.89 8.5,1.97 4.12,1.08 8.41,1.97 9.52,1.98 1.23,0.01 5.47,-3.44 10.77,-8.77 l 8.76,-8.8 -2.23,-10.34 -2.22,-10.34 2.72,-2.17 c 3.62,-2.89 23.97,-14.56 25.38,-14.56 0.62,0 4.78,2.99 9.24,6.64 l 8.13,6.63 7.21,-2.09 c 3.97,-1.15 9.76,-2.8 12.86,-3.67 l 5.64,-1.59 1.66,-6.71 c 0.91,-3.69 2.11,-8.41 2.66,-10.48 l 0.99,-3.78 34.21,0.55 3,10.21 3,10.21 5.35,1.2 c 2.94,0.66 5.34,1.46 5.33,1.79 -0.01,0.32 -4.46,4.55 -9.89,9.4 l -9.88,8.8 -14.85,0.35 c -16.71,0.38 -29.25,2.99 -43.23,9 -29.81,12.8 -52.36,37.29 -62.32,67.67 l -3.29,10.02 z m 791.75,77.12 c -7.66,2.37 -21.48,2.69 -27.92,0.65 -10.75,-3.41 -17.71,-9.42 -22.13,-19.09 -2.3,-5.03 -2.81,-7.75 -3.19,-16.79 l -0.44,-10.79 11.88,0.29 11.88,0.28 0.52,8.57 c 0.59,9.85 2.02,12.77 7.55,15.39 8.7,4.13 18.14,-0.68 19.16,-9.78 1.4,-12.42 -2.24,-18.79 -18.62,-32.59 -14.73,-12.41 -23.21,-21.48 -26.4,-28.26 -7.13,-15.09 -5.79,-35.68 3.06,-47.33 7.27,-9.56 20.36,-14.52 34.77,-13.18 20.48,1.91 30.56,13.5 32.16,36.96 l 0.6,8.79 -11.9,-0.29 -11.9,-0.28 -0.61,-7.53 c -0.71,-8.75 -2.87,-13.63 -6.69,-15.1 -3.84,-1.49 -11.81,-0.52 -14.35,1.73 -5.28,4.71 -6.35,14.64 -2.47,22.97 3.26,7 6.9,10.86 20.84,22.1 13.2,10.66 18.6,16.73 22.89,25.76 5.63,11.85 6.34,26.35 1.86,38.07 -3.38,8.84 -11.7,16.72 -20.55,19.45 z m 79.59,-128.95 -0.51,129.5 -12.25,0.28 -12.25,0.28 V 330 H 978.97 L 979.5,308.02 1057,308 v 22 z m 145.06,107.04 -0.57,22.46 -33.25,0.26 -33.25,0.27 -0.06,-38.77 c -0.04,-21.32 -0.28,-55.52 -0.55,-76.01 L 1107.91,308 h 25.08 l 0.51,128.5 z M 1092,308 v 152 h -11.94 c -6.57,0 -12.15,-0.34 -12.4,-0.75 -0.25,-0.41 -0.52,-34.61 -0.59,-76 L 1066.94,308 Z m 127.62,130.01 c 3.92,1.23 10.35,0.32 13.38,-1.89 1.38,-1.01 3.4,-3.36 4.5,-5.22 1.9,-3.23 2.01,-5.48 2.29,-45.99 0.27,-39.1 0.14,-43 -1.52,-47.48 -2.33,-6.27 -6.74,-9.43 -13.17,-9.43 -6.6,0 -11.16,2.62 -13.85,7.96 -2.23,4.42 -2.25,4.87 -2.25,47.28 0,46.05 0.08,46.8 5.24,51.56 1.37,1.27 3.79,2.71 5.38,3.21 z M 407.28,328.74 c -2.78,2.12 -4.81,2.74 -9.65,2.96 -6.93,0.32 -9.89,-0.64 -13.97,-4.51 -3.03,-2.87 -6.66,-9.17 -6.66,-11.56 0,-0.79 -3.84,-4.93 -8.53,-9.19 -4.7,-4.26 -8.41,-8.09 -8.25,-8.52 0.61,-1.7 15.91,-14.92 17.25,-14.92 0.79,0 4.42,2.65 8.06,5.89 6.21,5.5 7.01,5.91 12.45,6.3 7.09,0.52 12.31,4.04 15.11,10.19 3.7,8.15 1.25,17.97 -5.81,23.36 z M 215.89,328.12 C 202.83,342.08 193,350.9 193,348.66 c 0,-3.5 9.66,-20.07 16.71,-28.66 15.04,-18.33 35.72,-31.07 59.04,-36.37 8.75,-2 28.25,-3.35 28.25,-1.97 0,0.53 -2.36,3 -5.25,5.49 -4.9,4.22 -5.73,4.56 -12.36,5.12 -13.91,1.16 -33.56,9.44 -47.01,19.83 -2.97,2.28 -10.38,9.49 -16.49,16.02 z M 388.47,354 c 0.5,2.03 -0.14,3.25 -3.39,6.42 l -4,3.91 -0.87,-2.41 c -0.48,-1.33 -2.1,-5.86 -3.6,-10.06 -4.09,-11.42 -11.75,-23.12 -21.66,-33.05 l -8.67,-8.69 3.16,-3.06 c 1.73,-1.68 3.61,-3.06 4.18,-3.06 2.01,0 18.21,17.65 23.14,25.21 4.68,7.19 10.26,19.01 11.71,24.79 z m -6.71,169.36 c -12.08,7.79 -15.85,9.55 -18.42,8.58 -1.87,-0.7 -4.16,-4.56 -3.18,-5.37 3.39,-2.82 26.38,-15.61 27.62,-15.38 1.12,0.21 1.83,1.46 2.03,3.55 0.3,3.05 -0.14,3.52 -8.05,8.62 z m 11.02,-202.92 c 3.35,1.82 3.81,1.85 6.54,0.4 3.2,-1.71 4.61,-3.95 4.65,-7.37 0.05,-4.86 -2.42,-7.47 -7.07,-7.47 -9.23,0 -12.11,10.11 -4.12,14.44 z m -19.6,196.81 c -7.05,4.26 -13.32,7.75 -13.93,7.75 -1.04,0 -2.84,-3.82 -2.09,-4.43 1.58,-1.28 22.04,-13.7 24.2,-14.69 2.32,-1.06 2.93,-1.03 3.7,0.18 0.5,0.79 0.91,1.89 0.92,2.44 0.01,0.55 -5.76,4.49 -12.8,8.75 z"
       fill="#050605"
       id="path1"
       style="display:inline" />
    <path
       d="m 211.83,541.04 c -7.18,2.05 -24.47,3.39 -29.83,2.32 -31.26,-6.25 -55.09,-27.56 -62.45,-55.82 -2.06,-7.92 -2.08,-28.07 -0.02,-36.08 1.93,-7.55 8.45,-21.3 13.11,-27.65 1.97,-2.68 18.04,-18.51 35.72,-35.18 57.63,-54.32 61.69,-57.66 76.28,-62.68 3.13,-1.07 5.82,-1.83 5.97,-1.67 0.16,0.15 -1.48,2.52 -3.65,5.25 -8.17,10.34 -15.77,28.63 -17.54,42.23 l -0.68,5.26 -21.12,19.81 c -11.62,10.9 -26.64,24.96 -33.38,31.24 -6.74,6.29 -13.58,13.28 -15.21,15.53 -6.96,9.69 -9.55,22.94 -6.67,34.15 2.17,8.48 4.62,12.97 10.68,19.61 13.69,14.98 36.23,17.76 52.1,6.43 2.54,-1.81 20.31,-17.9 39.49,-35.75 44.17,-41.12 54.07,-49.95 56.26,-60.41 0.64,-3.01 0.63,-6.17 0.61,-10.27 v -1.88 c 0,-11.5 -0.14,-12.3 -3.2,-18.5 -1.75,-3.56 -5.51,-9.07 -8.34,-12.24 l -5.14,-5.76 10.71,-11.49 c 5.9,-6.32 11.02,-11.49 11.38,-11.49 0.89,0 8.88,8.39 13.37,14.03 4.56,5.74 11.16,19.52 13.4,27.97 1.2,4.54 1.7,10.26 1.68,19 -0.04,11.29 -0.34,13.35 -3.09,21.26 -3.57,10.28 -7.9,17.79 -14.63,25.35 -4.28,4.8 -43.91,42.45 -74.49,70.75 -18.21,16.85 -27.18,22.65 -41.32,26.68 z m 131.7,-88.94 c -11.82,5.54 -12.49,5.18 -6,-3.23 7.81,-10.1 14.01,-23.22 17.26,-36.49 l 2.72,-11.12 14,-13.29 c 51.04,-48.48 55.28,-52.8 58.7,-59.74 3.02,-6.14 3.29,-7.46 3.29,-16.21 0,-5.24 -0.57,-11.39 -1.26,-13.68 -1.4,-4.6 -6.81,-13.06 -11.62,-18.15 -7.44,-7.89 -23.49,-12.5 -36.17,-10.4 -10.7,1.77 -16.26,5.17 -31.27,19.08 -40.22,37.28 -70.98,66.76 -73.77,70.69 -1.74,2.44 -4.17,7.59 -5.41,11.45 -4.75,14.76 -0.42,31.67 11.04,43.12 l 5.14,5.14 -7.34,7.44 c -4.04,4.09 -9.55,9.3 -12.24,11.58 l -4.9,4.15 -6.42,-6.91 c -7.54,-8.12 -13.25,-17.9 -16.95,-29.03 -2.32,-6.99 -2.66,-9.7 -2.74,-21.5 -0.09,-15.35 1.23,-21.77 7,-33.99 5.16,-10.91 9.73,-16.27 29.3,-34.32 9.65,-8.9 26.34,-24.48 37.08,-34.61 30.47,-28.73 35.4,-32.82 45.53,-37.73 12.52,-6.07 20.83,-7.66 37,-7.05 14.26,0.53 21.55,2.45 33.75,8.87 7.63,4.02 21.82,17.92 26.6,26.06 13.28,22.6 14.55,49.06 3.42,71.27 -6.58,13.13 -5.92,12.46 -82.09,83.3 -18.61,17.3 -21.97,19.83 -33.65,25.3 z m 483.61,6.91 c -6.83,2.14 -19.38,2.55 -26.52,0.88 -6.04,-1.42 -15.29,-6.79 -19.25,-11.17 -9.57,-10.58 -10.7,-18.62 -10.14,-71.62 0.41,-37.76 0.53,-39.92 2.68,-46.48 3.01,-9.21 11.62,-18.25 20.59,-21.64 8.66,-3.27 26.45,-3.31 34.75,-0.08 12.57,4.9 20.56,15.97 22.68,31.42 1.42,10.41 1.4,78.65 -0.03,87.89 -2.46,15.85 -11.02,26.51 -24.76,30.8 z M 523.03,445 l -2.53,14.5 -11.27,0.28 c -8.73,0.22 -11.38,-0.02 -11.78,-1.06 -0.47,-1.21 1.21,-10.67 11.51,-64.72 1.63,-8.52 5.69,-30.12 9.03,-48 3.34,-17.88 6.32,-33.74 6.62,-35.25 l 0.55,-2.75 h 35.62 l 0.65,3.75 c 0.65,3.72 3.49,18.87 14.04,74.75 3.01,15.95 7.29,38.17 9.5,49.38 2.22,11.21 4.03,21.22 4.03,22.25 0,1.72 -0.92,1.87 -11.25,1.85 -6.19,0 -11.75,-0.34 -12.36,-0.75 -0.61,-0.4 -1.86,-5 -2.78,-10.23 -0.92,-5.23 -2.15,-11.65 -2.74,-14.27 l -1.08,-4.78 -16.61,0.28 -16.61,0.27 z m 133.17,12.22 c -5.91,2.91 -7.61,3.27 -16.64,3.51 -10.24,0.28 -16.54,-1.02 -24.09,-4.97 -5.01,-2.62 -12,-10.93 -14.57,-17.31 L 598.5,432.5 597.91,308 H 623 v 59.75 c 0,54.88 0.15,60.04 1.75,63.25 3.15,6.3 13.41,9.04 20.38,5.43 6.41,-3.31 6.34,-2.63 6.66,-68.68 L 652.07,308 h 24 l -0.28,63.25 -0.29,63.25 -2.64,5.62 c -3.7,7.89 -8.99,13.33 -16.66,17.1 z m 80.56,-62.47 -0.26,64.75 -11.55,0.28 c -6.36,0.15 -11.87,-0.03 -12.25,-0.42 -0.39,-0.38 -0.7,-29.64 -0.7,-65.03 V 330 h -27 v -22 h 78 v 22 h -25.99 z m 67.24,41.5 c 2.1,1.05 5.78,1.75 9.17,1.75 4.62,0 6.24,-0.47 8.69,-2.53 5.49,-4.63 5.64,-6.03 5.64,-52.97 v -1.65 c 0,-36.92 0,-43.52 -3.27,-47.27 -0.76,-0.87 -1.69,-1.59 -2.84,-2.49 -3.81,-2.99 -14.97,-2.99 -18.78,0 -0.96,0.76 -1.76,1.38 -2.43,2.12 -3.18,3.56 -3.18,9.97 -3.18,48.78 v 1.21 0.17 c 0,40.11 0,47.64 3.74,50.92 0.87,0.77 1.94,1.3 3.26,1.96 z M 246.83,378.29 c 1.09,1.31 1.84,1.2 6.2,-0.9 2.73,-1.31 6.06,-2.39 7.41,-2.39 2.42,0 5.56,-3.22 5.56,-5.7 0,-0.68 1.21,-3.85 2.69,-7.02 2.93,-6.28 11.88,-15.72 38.06,-40.16 7.84,-7.31 14.03,-13.66 13.76,-14.11 -0.28,-0.44 -0.59661,-2.38389 1.75949,-4.90275 5.77,-5.01 7.41051,-4.92725 3.05051,-6.74725 -2.09,-0.87 -4.75,-2.61 -5.9,-3.85 -2.3,-2.49 -4.99375,0.15375 -7.59375,3.79375 -1.51125,1.145 -3.67625,3.61375 -6.05625,4.72375 -5.89,2.78 -43.91,36.5925 -48.49,43.7525 -5.29,8.27 -8.25,15.37 -10.06,24.12 -1.31,6.32 -1.39,8.19 -0.39,9.39 z M 165,422.59 c 0,1.23 0.4,1.2 2.5,-0.18 1.38,-0.9 2.5,-1.35 2.5,-0.99 0,1.16 47.08,-41.72 52.11,-47.46 0.89,-1.02 1.92,-4.1 2.28,-6.85 0.83,-6.24 4.52,-18 7.82,-24.88 1.37,-2.88 2.19,-5.23 1.82,-5.23 -0.94,0 -8.23,6.16 -16.53,13.95 -57.64,54.16 -67.16,64.05 -61.64,64.05 1.05,0 2.62,1.09 3.5,2.42 0.87,1.34 2.5,2.72 3.61,3.07 1.12,0.36 2.03,1.3 2.03,2.1 z m 364.98,-14.81 c 0.01,0.99 2.84,1.22 12.27,1 7.45,-0.17 12.19,-0.67 12.1,-1.28 -2.73,-17.85 -11.98,-70.5 -12.4,-70.5 -0.53,0 -12.02,67.92 -11.97,70.78 z M 308.25,362.9 c 1.51,0.56 3.1,0.13 5.49,-1.5 1.85,-1.25 4.91,-2.79 6.81,-3.42 2.6,-0.85 3.45,-1.7 3.45,-3.43 0,-2.75 -7.07,-10.91 -8.5,-9.81 -0.55,0.42 -3.38,3.56 -6.3,6.99 -4.6,5.41 -5.15,6.49 -4.18,8.3 0.61,1.15 2.07,2.44 3.23,2.87 z"
       fill="#2275c3"
       id="path2"
       style="display:inline;fill:#2563eb;fill-opacity:1"
       inkscape:label="path2" />
    <path
       d="m 246.83,378.29 c -1,-1.2 -0.92,-3.07 0.39,-9.39 1.81,-8.75 4.77,-15.85 10.06,-24.12 4.58,-7.16 34.5079,-35.14701 39.17386,-38.7323 3.68666,-2.57771 17.99303,-18.49432 22.69281,-14.0388 1.15,1.24 4.08333,3.4811 6.17333,4.3511 4.36,1.82 3.58502,2.51167 -0.72725,8.25054 -5.86392,6.34301 -11.69099,11.75598 -17.84275,17.50946 -26.18,24.44 -35.13,33.88 -38.06,40.16 -1.48,3.17 -2.00385,6.52956 -2.80389,8.22719 -0.65739,1.39493 -1.36685,3.59986 -4.3528,5.58611 -1.88885,1.25646 -0.85345,0.35114 -7.86555,2.20779 C 248.21446,379.85444 247.92,379.6 246.83,378.29 Z m -81.89442,45.29856 c -3.52231,-0.41776 -6.69358,-5.81954 -9.54265,-8.00875 C 151.01588,412.21651 159.86,405.11 217.5,350.95 225.8,343.16 233.09,337 234.03,337 c 0.37,0 -0.45,2.35 -1.82,5.23 -3.3,6.88 -6.99,18.64 -7.82,24.88 -0.36,2.75 -1.39,5.83 -2.28,6.85 -1.80678,2.06181 -44.47844,42.74929 -53.46648,48.61106 -2.1,1.38 -2.43558,1.16841 -3.70794,1.0175 z M 308.25,362.9 c -1.16,-0.43 -2.62,-1.72 -3.23,-2.87 -0.97,-1.81 -0.42,-2.89 4.18,-8.3 2.92,-3.43 5.75,-6.57 6.3,-6.99 1.43,-1.1 8.5,7.06 8.5,9.81 0,1.73 -0.85,2.58 -3.45,3.43 -1.9,0.63 -4.96,2.17 -6.81,3.42 -2.39,1.63 -3.98,2.06 -5.49,1.5 z"
       fill="#679fd2"
       id="path3"
       style="display:inline;fill:#467cf1;fill-opacity:1" />
  </g>
</svg>
